<?xml version="1.0" encoding="UTF-8" standalone="no"?>
<!DOCTYPE svg PUBLIC "-//W3C//DTD SVG 20010904//EN"
              "http://www.w3.org/TR/2001/REC-SVG-20010904/DTD/svg10.dtd">

<svg xmlns="http://www.w3.org/2000/svg"
     width="6.94in" height="4.86in"
     viewBox="0 0 694 486">
  <path id="Selection #3"
        fill="none" stroke="black" stroke-width="1"
        d="M 469.00,61.00
           C 472.20,61.01 474.92,60.85 478.00,61.97
             490.94,66.65 491.26,85.31 493.60,97.00
             493.60,97.00 508.61,176.00 508.61,176.00
             508.61,176.00 517.00,222.00 517.00,222.00
             523.66,222.00 532.13,220.99 538.00,224.36
             544.21,227.94 548.01,236.18 549.48,243.00
             549.48,243.00 550.31,248.96 550.31,248.96
             551.56,253.55 555.62,254.33 558.25,261.00
             559.40,264.77 559.38,277.01 558.25,281.00
             558.25,281.00 555.00,292.00 555.00,292.00
             560.65,294.67 567.13,301.20 569.64,307.00
             571.41,311.10 571.61,323.68 570.36,328.00
             569.57,330.74 567.81,333.77 565.79,335.79
             558.78,342.80 546.22,342.84 537.00,343.00
             528.58,343.16 528.54,346.39 521.00,348.78
             511.73,351.73 505.55,350.54 502.00,351.49
             495.37,353.29 491.18,358.97 475.00,358.98
             475.00,358.98 457.28,358.98 457.28,358.98
             454.47,359.27 448.06,363.28 445.00,364.74
             439.62,367.30 435.71,367.98 430.00,369.21
             430.00,369.21 416.00,371.91 416.00,371.91
             413.45,372.09 409.54,371.65 407.39,373.02
             405.30,374.35 400.67,383.30 398.95,386.00
             394.64,392.75 388.88,398.50 383.00,403.91
             369.62,416.21 347.22,424.97 329.00,425.00
             329.00,425.00 308.00,425.00 308.00,425.00
             265.88,424.50 226.91,384.66 225.00,343.00
             207.12,349.69 190.60,349.03 172.00,349.00
             164.69,348.99 159.72,348.36 153.00,345.22
             146.97,342.40 140.95,339.40 136.04,334.83
             114.42,314.68 111.49,274.91 106.00,247.00
             106.00,247.00 101.44,223.00 101.44,223.00
             101.44,223.00 100.79,216.00 100.79,216.00
             100.79,216.00 97.30,206.00 97.30,206.00
             97.30,206.00 90.79,177.00 90.79,177.00
             89.33,170.22 87.08,162.87 87.00,156.00
             87.00,156.00 87.00,148.00 87.00,148.00
             87.00,145.35 86.89,142.57 87.64,140.00
             92.66,122.61 114.56,128.21 123.00,124.32
             133.65,119.41 134.69,120.72 145.00,118.62
             145.00,118.62 154.00,115.90 154.00,115.90
             154.00,115.90 174.00,111.42 174.00,111.42
             174.00,111.42 187.00,109.61 187.00,109.61
             187.00,109.61 196.00,106.49 196.00,106.49
             196.00,106.49 214.00,102.42 214.00,102.42
             214.00,102.42 224.00,100.30 224.00,100.30
             224.00,100.30 232.00,99.37 232.00,99.37
             241.58,96.76 250.87,93.12 261.00,93.00
             272.97,92.86 284.63,91.11 295.00,97.96
             300.57,101.65 305.52,110.43 306.84,117.00
             306.84,117.00 306.84,130.00 306.84,130.00
             307.00,134.02 307.29,139.21 306.21,143.00
             305.14,146.77 303.25,149.85 301.00,153.00
             304.10,153.00 311.15,153.49 313.63,151.98
             315.68,150.73 316.49,148.39 320.04,145.97
             322.17,144.51 325.89,143.25 327.40,141.51
             330.58,137.83 327.48,131.86 330.36,125.00
             332.67,119.50 343.23,104.10 348.01,100.97
             353.46,97.40 366.90,96.76 373.00,98.97
             376.20,100.12 378.41,101.89 381.00,104.00
             381.00,96.79 380.00,90.20 384.64,84.04
             392.21,73.99 412.49,73.85 424.00,74.00
             428.29,74.06 429.09,74.19 433.00,76.00
             437.39,61.11 456.22,60.98 469.00,61.00 Z
           M 398.00,188.00
           C 398.00,188.00 409.00,242.00 409.00,242.00
             416.21,239.32 412.85,233.25 411.60,227.00
             411.60,227.00 404.00,187.00 404.00,187.00
             404.00,187.00 398.00,188.00 398.00,188.00 Z
           M 161.00,211.00
           C 161.00,211.00 171.40,269.00 171.40,269.00
             172.74,275.70 174.46,285.86 180.30,290.05
             185.47,293.87 193.24,290.81 199.00,290.05
             199.00,290.05 192.58,257.00 192.58,257.00
             192.58,257.00 183.00,207.00 183.00,207.00
             183.00,207.00 161.00,211.00 161.00,211.00 Z
           M 298.96,211.56
           C 295.65,209.23 283.42,209.07 281.66,213.43
             280.96,215.17 282.21,220.04 282.60,222.00
             282.60,222.00 286.00,240.00 286.00,240.00
             286.00,240.00 309.00,236.00 309.00,236.00
             307.02,228.52 305.63,216.27 298.96,211.56 Z" />
</svg>
