<?xml version="1.0" encoding="UTF-8" standalone="no"?>
<!DOCTYPE svg PUBLIC "-//W3C//DTD SVG 20010904//EN"
              "http://www.w3.org/TR/2001/REC-SVG-20010904/DTD/svg10.dtd">

<svg xmlns="http://www.w3.org/2000/svg"
     width="4.5in" height="3.15in"
     viewBox="0 0 450 315">
  <path id="Selection"
        fill="none" stroke="black" stroke-width="1"
        d="M 285.27,47.13
           C 290.21,41.72 308.21,36.08 314.69,49.00
             316.16,51.93 316.96,58.53 317.61,62.00
             317.61,62.00 322.28,87.00 322.28,87.00
             322.28,87.00 333.00,146.00 333.00,146.00
             341.95,146.00 348.65,145.27 352.89,155.00
             354.80,159.38 354.69,162.55 355.57,165.00
             356.95,168.90 359.55,170.35 359.89,176.00
             360.30,182.68 356.72,186.68 357.55,189.39
             358.49,192.46 364.98,195.45 367.69,201.00
             368.71,203.11 369.06,205.68 368.80,208.00
             367.67,218.08 357.38,220.14 349.00,219.97
             339.17,219.76 342.80,221.47 335.00,224.24
             329.68,226.12 326.48,225.66 323.00,226.63
             316.01,228.59 314.86,230.78 306.00,230.83
             306.00,230.83 295.00,230.83 295.00,230.83
             291.67,231.30 287.56,235.03 280.00,236.71
             280.00,236.71 263.21,240.02 263.21,240.02
             260.80,241.43 258.63,245.64 256.96,248.00
             254.40,251.61 252.11,253.91 249.00,257.00
             236.30,269.60 222.65,274.20 205.00,274.00
             175.70,273.65 148.09,248.89 148.00,219.00
             135.52,224.30 127.05,224.02 114.00,224.00
             109.42,223.99 107.47,224.10 103.00,222.64
             96.78,220.61 94.58,218.57 90.00,214.00
             86.30,210.30 83.82,207.66 81.32,203.00
             76.28,193.61 72.56,168.57 70.39,157.00
             70.39,157.00 66.81,137.00 66.81,137.00
             66.81,137.00 64.16,128.00 64.16,128.00
             64.16,128.00 58.18,100.00 58.18,100.00
             57.04,87.99 65.58,84.17 75.91,84.05
             81.59,83.99 81.03,82.05 86.00,80.55
             86.00,80.55 103.00,76.74 103.00,76.74
             103.00,76.74 125.00,72.48 125.00,72.48
             125.00,72.48 144.00,67.66 144.00,67.66
             144.00,67.66 152.00,66.62 152.00,66.62
             157.32,65.54 161.92,62.13 173.00,62.00
             177.26,61.95 182.08,61.70 186.00,63.57
             195.38,68.05 197.11,75.63 197.00,85.00
             196.97,87.35 196.96,89.77 196.11,92.00
             194.76,95.54 191.61,98.35 189.00,101.00
             189.00,101.00 206.00,102.00 206.00,102.00
             208.47,96.84 210.54,95.42 216.00,94.00
             215.17,91.06 214.76,89.09 215.34,86.00
             216.04,82.25 218.25,79.05 220.43,76.00
             222.20,73.52 224.59,70.31 227.04,68.51
             233.11,64.06 241.13,65.95 245.30,72.02
             247.87,75.75 248.10,64.66 249.89,60.00
             253.29,51.15 267.78,48.23 276.00,50.57
             278.66,51.33 279.86,52.39 282.00,54.00
             282.74,51.16 283.20,49.40 285.27,47.13 Z" />
</svg>
