G75*
%MOIN*%
%OFA0B0*%
%FSLAX25Y25*%
%IPPOS*%
%LPD*%
%AMOC8*
5,1,8,0,0,1.08239X$1,22.5*
%
%ADD10R,0.05906X0.05118*%
%ADD11R,0.07087X0.06299*%
%ADD12R,0.05900X0.07900*%
%ADD13R,0.15000X0.07900*%
%ADD14R,0.07098X0.06299*%
%ADD15R,0.05118X0.05906*%
%ADD16R,0.06299X0.09055*%
%ADD17R,0.03937X0.05512*%
%ADD18R,0.05800X0.02000*%
%ADD19R,0.02000X0.05800*%
%ADD20R,0.01969X0.09843*%
%ADD21R,0.07874X0.09843*%
D10*
X0039241Y0048290D03*
X0039241Y0055770D03*
X0050776Y0055770D03*
X0050776Y0048290D03*
X0050776Y0068329D03*
X0050776Y0075809D03*
X0095068Y0075809D03*
X0095068Y0068329D03*
D11*
X0095068Y0057542D03*
X0095068Y0046518D03*
D12*
X0084991Y0074312D03*
X0075991Y0074312D03*
X0066991Y0074312D03*
D13*
X0076091Y0049512D03*
D14*
X0039241Y0066392D03*
X0039241Y0077589D03*
D15*
X0076564Y0132542D03*
X0084044Y0132542D03*
D16*
X0039241Y0012660D03*
X0039241Y0037463D03*
D17*
X0058769Y0126676D03*
X0062509Y0135337D03*
X0055028Y0135337D03*
D18*
X0059391Y0118148D03*
X0059391Y0115048D03*
X0059391Y0111848D03*
X0059391Y0108748D03*
X0059391Y0105548D03*
X0059391Y0102448D03*
X0059391Y0099248D03*
X0059391Y0096148D03*
X0092791Y0096148D03*
X0092791Y0099248D03*
X0092791Y0102448D03*
X0092791Y0105548D03*
X0092791Y0108748D03*
X0092791Y0111848D03*
X0092791Y0115048D03*
X0092791Y0118148D03*
D19*
X0087091Y0123848D03*
X0083991Y0123848D03*
X0080791Y0123848D03*
X0077691Y0123848D03*
X0074491Y0123848D03*
X0071391Y0123848D03*
X0068191Y0123848D03*
X0065091Y0123848D03*
X0065091Y0090448D03*
X0068191Y0090448D03*
X0071391Y0090448D03*
X0074491Y0090448D03*
X0077691Y0090448D03*
X0080791Y0090448D03*
X0083991Y0090448D03*
X0087091Y0090448D03*
D20*
X0082391Y0034471D03*
X0079241Y0034471D03*
X0076091Y0034471D03*
X0072942Y0034471D03*
X0069792Y0034471D03*
D21*
X0058375Y0034471D03*
X0058375Y0012817D03*
X0093808Y0012817D03*
X0093808Y0034471D03*
M02*
