G75*
%MOIN*%
%OFA0B0*%
%FSLAX25Y25*%
%IPPOS*%
%LPD*%
%AMOC8*
5,1,8,0,0,1.08239X$1,22.5*
%
%ADD10OC8,0.06000*%
%ADD11C,0.07000*%
%ADD12OC8,0.07400*%
%ADD13C,0.00600*%
%ADD14C,0.02700*%
%ADD15C,0.01600*%
D10*
X0028375Y0086518D03*
X0028375Y0096518D03*
X0028375Y0106518D03*
X0028375Y0116518D03*
X0028375Y0126518D03*
X0028375Y0136518D03*
X0087312Y0153290D03*
X0097312Y0153290D03*
X0107312Y0153290D03*
X0117312Y0153290D03*
X0127312Y0153290D03*
X0137312Y0153290D03*
X0115265Y0132030D03*
X0115265Y0122030D03*
X0115265Y0112030D03*
X0105265Y0112030D03*
X0105265Y0122030D03*
X0105265Y0132030D03*
D11*
X0043375Y0153290D03*
X0033375Y0153290D03*
X0023375Y0153290D03*
X0013375Y0153290D03*
D12*
X0120816Y0081164D03*
X0120816Y0071164D03*
X0120816Y0061164D03*
X0130816Y0061164D03*
X0130816Y0071164D03*
X0130816Y0081164D03*
D13*
X0126000Y0076019D02*
X0130800Y0071219D01*
X0130816Y0071164D01*
X0126000Y0076019D02*
X0119400Y0076019D01*
X0117600Y0077819D01*
X0117000Y0077819D01*
X0076200Y0118619D01*
X0075000Y0118619D01*
X0069000Y0121019D02*
X0069000Y0132419D01*
X0067800Y0133619D01*
X0064200Y0133619D01*
X0052200Y0121619D01*
X0043200Y0121619D01*
X0028800Y0136019D01*
X0028375Y0136518D01*
X0025800Y0149219D02*
X0025800Y0149819D01*
X0022800Y0152819D01*
X0023375Y0153290D01*
X0025800Y0149219D02*
X0051000Y0124019D01*
X0055800Y0120419D02*
X0032400Y0120419D01*
X0028800Y0116819D01*
X0028375Y0116518D01*
X0055800Y0120419D02*
X0066600Y0131219D01*
X0069000Y0121019D02*
X0094800Y0095219D01*
X0094800Y0088019D01*
X0082800Y0118619D02*
X0081600Y0118619D01*
X0082800Y0118619D02*
X0117000Y0152819D01*
X0117312Y0153290D01*
X0107312Y0153290D02*
X0106800Y0152819D01*
X0091800Y0137819D01*
X0081600Y0137819D01*
D14*
X0081600Y0137819D03*
X0066600Y0131219D03*
X0075000Y0118619D03*
X0081600Y0118619D03*
X0094800Y0088019D03*
X0054000Y0111419D03*
X0051000Y0124019D03*
X0051000Y0135419D03*
D15*
X0004100Y0180084D02*
X0004100Y0007519D01*
X0145169Y0007519D01*
X0145169Y0180084D01*
X0004100Y0180084D01*
X0004100Y0179457D02*
X0145169Y0179457D01*
X0145169Y0177858D02*
X0069268Y0177858D01*
X0068471Y0178188D02*
X0065050Y0178188D01*
X0061890Y0176879D01*
X0059471Y0174460D01*
X0058161Y0171299D01*
X0058161Y0167878D01*
X0059471Y0164718D01*
X0061890Y0162299D01*
X0065050Y0160990D01*
X0068471Y0160990D01*
X0071632Y0162299D01*
X0074051Y0164718D01*
X0075360Y0167878D01*
X0075360Y0171299D01*
X0074051Y0174460D01*
X0071632Y0176879D01*
X0068471Y0178188D01*
X0064253Y0177858D02*
X0004100Y0177858D01*
X0004100Y0176260D02*
X0061270Y0176260D01*
X0059672Y0174661D02*
X0004100Y0174661D01*
X0004100Y0173063D02*
X0058892Y0173063D01*
X0058230Y0171464D02*
X0004100Y0171464D01*
X0004100Y0169866D02*
X0058161Y0169866D01*
X0058161Y0168267D02*
X0004100Y0168267D01*
X0004100Y0166669D02*
X0058663Y0166669D01*
X0059325Y0165070D02*
X0004100Y0165070D01*
X0004100Y0163472D02*
X0060717Y0163472D01*
X0062918Y0161873D02*
X0004100Y0161873D01*
X0004100Y0160274D02*
X0145169Y0160274D01*
X0145169Y0158676D02*
X0004100Y0158676D01*
X0004100Y0157077D02*
X0010233Y0157077D01*
X0010599Y0157444D02*
X0009221Y0156065D01*
X0008475Y0154264D01*
X0008475Y0152315D01*
X0009221Y0150514D01*
X0010599Y0149136D01*
X0012400Y0148390D01*
X0014349Y0148390D01*
X0016150Y0149136D01*
X0017529Y0150514D01*
X0018275Y0152315D01*
X0018275Y0154264D01*
X0017529Y0156065D01*
X0016150Y0157444D01*
X0014349Y0158190D01*
X0012400Y0158190D01*
X0010599Y0157444D01*
X0008978Y0155479D02*
X0004100Y0155479D01*
X0004100Y0153880D02*
X0008475Y0153880D01*
X0008489Y0152282D02*
X0004100Y0152282D01*
X0004100Y0150683D02*
X0009151Y0150683D01*
X0010722Y0149085D02*
X0004100Y0149085D01*
X0004100Y0147486D02*
X0025128Y0147486D01*
X0025096Y0147519D02*
X0048250Y0124365D01*
X0048250Y0123472D01*
X0048313Y0123319D01*
X0043904Y0123319D01*
X0032651Y0134572D01*
X0032775Y0134696D01*
X0032775Y0138341D01*
X0030197Y0140918D01*
X0026552Y0140918D01*
X0023975Y0138341D01*
X0023975Y0134696D01*
X0026552Y0132118D01*
X0030197Y0132118D01*
X0030247Y0132168D01*
X0040296Y0122119D01*
X0031696Y0122119D01*
X0030346Y0120769D01*
X0030197Y0120918D01*
X0026552Y0120918D01*
X0023975Y0118341D01*
X0023975Y0114696D01*
X0026552Y0112118D01*
X0030197Y0112118D01*
X0032775Y0114696D01*
X0032775Y0118341D01*
X0032750Y0118365D01*
X0033104Y0118719D01*
X0056504Y0118719D01*
X0057500Y0119715D01*
X0066254Y0128469D01*
X0067147Y0128469D01*
X0067300Y0128532D01*
X0067300Y0120315D01*
X0068296Y0119319D01*
X0093100Y0094515D01*
X0093100Y0090208D01*
X0092469Y0089577D01*
X0092050Y0088566D01*
X0092050Y0087472D01*
X0092469Y0086461D01*
X0093242Y0085688D01*
X0094253Y0085269D01*
X0095347Y0085269D01*
X0096358Y0085688D01*
X0097131Y0086461D01*
X0097550Y0087472D01*
X0097550Y0088566D01*
X0097131Y0089577D01*
X0096500Y0090208D01*
X0096500Y0095915D01*
X0115300Y0077115D01*
X0116296Y0076119D01*
X0116896Y0076119D01*
X0117700Y0075315D01*
X0117727Y0075288D01*
X0115716Y0073276D01*
X0115716Y0069051D01*
X0118603Y0066164D01*
X0115716Y0063276D01*
X0115716Y0059051D01*
X0118703Y0056064D01*
X0122928Y0056064D01*
X0125533Y0058668D01*
X0128538Y0055664D01*
X0130616Y0055664D01*
X0130616Y0060964D01*
X0131016Y0060964D01*
X0131016Y0061364D01*
X0136316Y0061364D01*
X0136316Y0063442D01*
X0133311Y0066447D01*
X0135916Y0069051D01*
X0135916Y0073276D01*
X0133028Y0076164D01*
X0135916Y0079051D01*
X0135916Y0083276D01*
X0132928Y0086264D01*
X0128703Y0086264D01*
X0125816Y0083376D01*
X0122928Y0086264D01*
X0118703Y0086264D01*
X0115716Y0083276D01*
X0115716Y0081507D01*
X0081354Y0115869D01*
X0082147Y0115869D01*
X0083158Y0116288D01*
X0083931Y0117061D01*
X0084133Y0117548D01*
X0115482Y0148897D01*
X0115489Y0148890D01*
X0119134Y0148890D01*
X0121712Y0151467D01*
X0121712Y0155112D01*
X0119134Y0157690D01*
X0115489Y0157690D01*
X0112912Y0155112D01*
X0112912Y0151467D01*
X0113078Y0151301D01*
X0082853Y0121076D01*
X0082147Y0121369D01*
X0081053Y0121369D01*
X0080042Y0120950D01*
X0079269Y0120177D01*
X0078850Y0119166D01*
X0078850Y0118373D01*
X0077533Y0119690D01*
X0077331Y0120177D01*
X0076558Y0120950D01*
X0075547Y0121369D01*
X0074453Y0121369D01*
X0073442Y0120950D01*
X0072669Y0120177D01*
X0072545Y0119878D01*
X0070700Y0121723D01*
X0070700Y0133123D01*
X0069704Y0134119D01*
X0069500Y0134323D01*
X0069500Y0134323D01*
X0068504Y0135319D01*
X0063496Y0135319D01*
X0053455Y0125278D01*
X0053331Y0125577D01*
X0052558Y0126350D01*
X0051547Y0126769D01*
X0050654Y0126769D01*
X0027500Y0149923D01*
X0027500Y0150485D01*
X0027529Y0150514D01*
X0028194Y0152120D01*
X0028205Y0152049D01*
X0028463Y0151255D01*
X0028842Y0150512D01*
X0029332Y0149837D01*
X0029922Y0149247D01*
X0030597Y0148757D01*
X0031340Y0148378D01*
X0032134Y0148120D01*
X0032958Y0147990D01*
X0033175Y0147990D01*
X0033175Y0153090D01*
X0033575Y0153090D01*
X0033575Y0147990D01*
X0033792Y0147990D01*
X0034616Y0148120D01*
X0035409Y0148378D01*
X0036153Y0148757D01*
X0036828Y0149247D01*
X0037417Y0149837D01*
X0037908Y0150512D01*
X0038286Y0151255D01*
X0038544Y0152049D01*
X0038556Y0152120D01*
X0039221Y0150514D01*
X0040599Y0149136D01*
X0042400Y0148390D01*
X0044349Y0148390D01*
X0046150Y0149136D01*
X0047529Y0150514D01*
X0048275Y0152315D01*
X0048275Y0154264D01*
X0047529Y0156065D01*
X0046150Y0157444D01*
X0044349Y0158190D01*
X0042400Y0158190D01*
X0040599Y0157444D01*
X0039221Y0156065D01*
X0038556Y0154459D01*
X0038544Y0154531D01*
X0038286Y0155324D01*
X0037908Y0156068D01*
X0037417Y0156742D01*
X0036828Y0157332D01*
X0036153Y0157823D01*
X0035409Y0158201D01*
X0034616Y0158459D01*
X0033792Y0158590D01*
X0033575Y0158590D01*
X0033575Y0153490D01*
X0033175Y0153490D01*
X0033175Y0158590D01*
X0032958Y0158590D01*
X0032134Y0158459D01*
X0031340Y0158201D01*
X0030597Y0157823D01*
X0029922Y0157332D01*
X0029332Y0156742D01*
X0028842Y0156068D01*
X0028463Y0155324D01*
X0028205Y0154531D01*
X0028194Y0154459D01*
X0027529Y0156065D01*
X0026150Y0157444D01*
X0024349Y0158190D01*
X0022400Y0158190D01*
X0020599Y0157444D01*
X0019221Y0156065D01*
X0018475Y0154264D01*
X0018475Y0152315D01*
X0019221Y0150514D01*
X0020599Y0149136D01*
X0022400Y0148390D01*
X0024225Y0148390D01*
X0025096Y0147519D01*
X0026727Y0145888D02*
X0004100Y0145888D01*
X0004100Y0144289D02*
X0028325Y0144289D01*
X0029924Y0142691D02*
X0004100Y0142691D01*
X0004100Y0141092D02*
X0031522Y0141092D01*
X0031622Y0139494D02*
X0033121Y0139494D01*
X0032775Y0137895D02*
X0034719Y0137895D01*
X0036318Y0136297D02*
X0032775Y0136297D01*
X0032775Y0134698D02*
X0037916Y0134698D01*
X0039515Y0133100D02*
X0034123Y0133100D01*
X0035722Y0131501D02*
X0041113Y0131501D01*
X0042712Y0129903D02*
X0037320Y0129903D01*
X0038919Y0128304D02*
X0044310Y0128304D01*
X0045909Y0126706D02*
X0040517Y0126706D01*
X0042116Y0125107D02*
X0047507Y0125107D01*
X0048250Y0123509D02*
X0043714Y0123509D01*
X0038906Y0123509D02*
X0031588Y0123509D01*
X0031487Y0121910D02*
X0004100Y0121910D01*
X0004100Y0120312D02*
X0025946Y0120312D01*
X0026552Y0122118D02*
X0030197Y0122118D01*
X0032775Y0124696D01*
X0032775Y0128341D01*
X0030197Y0130918D01*
X0026552Y0130918D01*
X0023975Y0128341D01*
X0023975Y0124696D01*
X0026552Y0122118D01*
X0025162Y0123509D02*
X0004100Y0123509D01*
X0004100Y0125107D02*
X0023975Y0125107D01*
X0023975Y0126706D02*
X0004100Y0126706D01*
X0004100Y0128304D02*
X0023975Y0128304D01*
X0025537Y0129903D02*
X0004100Y0129903D01*
X0004100Y0131501D02*
X0030913Y0131501D01*
X0031213Y0129903D02*
X0032512Y0129903D01*
X0032775Y0128304D02*
X0034110Y0128304D01*
X0032775Y0126706D02*
X0035709Y0126706D01*
X0037307Y0125107D02*
X0032775Y0125107D01*
X0033098Y0118713D02*
X0068902Y0118713D01*
X0070500Y0117115D02*
X0032775Y0117115D01*
X0032775Y0115516D02*
X0072099Y0115516D01*
X0073697Y0113918D02*
X0031997Y0113918D01*
X0030398Y0112319D02*
X0075296Y0112319D01*
X0076894Y0110721D02*
X0030395Y0110721D01*
X0030197Y0110918D02*
X0026552Y0110918D01*
X0023975Y0108341D01*
X0023975Y0104696D01*
X0026552Y0102118D01*
X0030197Y0102118D01*
X0032775Y0104696D01*
X0032775Y0108341D01*
X0030197Y0110918D01*
X0031993Y0109122D02*
X0078493Y0109122D01*
X0080091Y0107524D02*
X0032775Y0107524D01*
X0032775Y0105925D02*
X0081690Y0105925D01*
X0083288Y0104327D02*
X0032406Y0104327D01*
X0030807Y0102728D02*
X0084887Y0102728D01*
X0086485Y0101130D02*
X0004100Y0101130D01*
X0004100Y0102728D02*
X0025942Y0102728D01*
X0026552Y0100918D02*
X0023975Y0098341D01*
X0023975Y0094696D01*
X0026552Y0092118D01*
X0030197Y0092118D01*
X0032775Y0094696D01*
X0032775Y0098341D01*
X0030197Y0100918D01*
X0026552Y0100918D01*
X0025165Y0099531D02*
X0004100Y0099531D01*
X0004100Y0097933D02*
X0023975Y0097933D01*
X0023975Y0096334D02*
X0004100Y0096334D01*
X0004100Y0094736D02*
X0023975Y0094736D01*
X0025533Y0093137D02*
X0004100Y0093137D01*
X0004100Y0091539D02*
X0093100Y0091539D01*
X0093100Y0093137D02*
X0031216Y0093137D01*
X0030363Y0091318D02*
X0028575Y0091318D01*
X0028575Y0086718D01*
X0033175Y0086718D01*
X0033175Y0088506D01*
X0030363Y0091318D01*
X0031741Y0089940D02*
X0092832Y0089940D01*
X0092050Y0088341D02*
X0033175Y0088341D01*
X0033175Y0086743D02*
X0092352Y0086743D01*
X0096768Y0089940D02*
X0102475Y0089940D01*
X0104073Y0088341D02*
X0097550Y0088341D01*
X0097248Y0086743D02*
X0105672Y0086743D01*
X0107270Y0085144D02*
X0033175Y0085144D01*
X0033175Y0084530D02*
X0033175Y0086318D01*
X0028575Y0086318D01*
X0028575Y0086718D01*
X0028175Y0086718D01*
X0028175Y0091318D01*
X0026387Y0091318D01*
X0023575Y0088506D01*
X0023575Y0086718D01*
X0028175Y0086718D01*
X0028175Y0086318D01*
X0028575Y0086318D01*
X0028575Y0081718D01*
X0030363Y0081718D01*
X0033175Y0084530D01*
X0032191Y0083546D02*
X0108869Y0083546D01*
X0110467Y0081947D02*
X0030592Y0081947D01*
X0028575Y0081947D02*
X0028175Y0081947D01*
X0028175Y0081718D02*
X0028175Y0086318D01*
X0023575Y0086318D01*
X0023575Y0084530D01*
X0026387Y0081718D01*
X0028175Y0081718D01*
X0028175Y0083546D02*
X0028575Y0083546D01*
X0028575Y0085144D02*
X0028175Y0085144D01*
X0028175Y0086743D02*
X0028575Y0086743D01*
X0028575Y0088341D02*
X0028175Y0088341D01*
X0028175Y0089940D02*
X0028575Y0089940D01*
X0025008Y0089940D02*
X0004100Y0089940D01*
X0004100Y0088341D02*
X0023575Y0088341D01*
X0023575Y0086743D02*
X0004100Y0086743D01*
X0004100Y0085144D02*
X0023575Y0085144D01*
X0024559Y0083546D02*
X0004100Y0083546D01*
X0004100Y0081947D02*
X0026157Y0081947D01*
X0032775Y0094736D02*
X0092879Y0094736D01*
X0091281Y0096334D02*
X0032775Y0096334D01*
X0032775Y0097933D02*
X0089682Y0097933D01*
X0088084Y0099531D02*
X0031584Y0099531D01*
X0024344Y0104327D02*
X0004100Y0104327D01*
X0004100Y0105925D02*
X0023975Y0105925D01*
X0023975Y0107524D02*
X0004100Y0107524D01*
X0004100Y0109122D02*
X0024756Y0109122D01*
X0026355Y0110721D02*
X0004100Y0110721D01*
X0004100Y0112319D02*
X0026351Y0112319D01*
X0024753Y0113918D02*
X0004100Y0113918D01*
X0004100Y0115516D02*
X0023975Y0115516D01*
X0023975Y0117115D02*
X0004100Y0117115D01*
X0004100Y0118713D02*
X0024347Y0118713D01*
X0025571Y0133100D02*
X0004100Y0133100D01*
X0004100Y0134698D02*
X0023975Y0134698D01*
X0023975Y0136297D02*
X0004100Y0136297D01*
X0004100Y0137895D02*
X0023975Y0137895D01*
X0025128Y0139494D02*
X0004100Y0139494D01*
X0016028Y0149085D02*
X0020722Y0149085D01*
X0019151Y0150683D02*
X0017599Y0150683D01*
X0018261Y0152282D02*
X0018489Y0152282D01*
X0018475Y0153880D02*
X0018275Y0153880D01*
X0017772Y0155479D02*
X0018978Y0155479D01*
X0020233Y0157077D02*
X0016517Y0157077D01*
X0026517Y0157077D02*
X0029667Y0157077D01*
X0028542Y0155479D02*
X0027772Y0155479D01*
X0027599Y0150683D02*
X0028754Y0150683D01*
X0028338Y0149085D02*
X0030145Y0149085D01*
X0029937Y0147486D02*
X0099063Y0147486D01*
X0099134Y0148890D02*
X0101712Y0151467D01*
X0101712Y0155112D01*
X0099134Y0157690D01*
X0095489Y0157690D01*
X0092912Y0155112D01*
X0092912Y0151467D01*
X0095489Y0148890D01*
X0099134Y0148890D01*
X0099329Y0149085D02*
X0100662Y0149085D01*
X0100928Y0150683D02*
X0102260Y0150683D01*
X0102978Y0151401D02*
X0091096Y0139519D01*
X0083789Y0139519D01*
X0083158Y0140150D01*
X0082147Y0140569D01*
X0081053Y0140569D01*
X0080042Y0140150D01*
X0079269Y0139377D01*
X0078850Y0138366D01*
X0078850Y0137272D01*
X0079269Y0136261D01*
X0080042Y0135488D01*
X0081053Y0135069D01*
X0082147Y0135069D01*
X0083158Y0135488D01*
X0083789Y0136119D01*
X0091096Y0136119D01*
X0092504Y0136119D01*
X0105382Y0148997D01*
X0105489Y0148890D01*
X0109134Y0148890D01*
X0111712Y0151467D01*
X0111712Y0155112D01*
X0109134Y0157690D01*
X0105489Y0157690D01*
X0102912Y0155112D01*
X0102912Y0151467D01*
X0102978Y0151401D01*
X0102912Y0152282D02*
X0101712Y0152282D01*
X0101712Y0153880D02*
X0102912Y0153880D01*
X0103278Y0155479D02*
X0101345Y0155479D01*
X0099747Y0157077D02*
X0104877Y0157077D01*
X0109747Y0157077D02*
X0114877Y0157077D01*
X0113278Y0155479D02*
X0111345Y0155479D01*
X0111712Y0153880D02*
X0112912Y0153880D01*
X0112912Y0152282D02*
X0111712Y0152282D01*
X0112460Y0150683D02*
X0110928Y0150683D01*
X0110862Y0149085D02*
X0109329Y0149085D01*
X0109263Y0147486D02*
X0103872Y0147486D01*
X0102273Y0145888D02*
X0107665Y0145888D01*
X0106066Y0144289D02*
X0100675Y0144289D01*
X0099076Y0142691D02*
X0104468Y0142691D01*
X0102869Y0141092D02*
X0097478Y0141092D01*
X0095879Y0139494D02*
X0101271Y0139494D01*
X0099672Y0137895D02*
X0094281Y0137895D01*
X0092682Y0136297D02*
X0098074Y0136297D01*
X0096475Y0134698D02*
X0069125Y0134698D01*
X0069704Y0134119D02*
X0069704Y0134119D01*
X0070700Y0133100D02*
X0094877Y0133100D01*
X0093278Y0131501D02*
X0070700Y0131501D01*
X0070700Y0129903D02*
X0091680Y0129903D01*
X0090081Y0128304D02*
X0070700Y0128304D01*
X0070700Y0126706D02*
X0088483Y0126706D01*
X0086884Y0125107D02*
X0070700Y0125107D01*
X0070700Y0123509D02*
X0085286Y0123509D01*
X0083687Y0121910D02*
X0070700Y0121910D01*
X0072111Y0120312D02*
X0072804Y0120312D01*
X0077196Y0120312D02*
X0079404Y0120312D01*
X0078850Y0118713D02*
X0078510Y0118713D01*
X0081707Y0115516D02*
X0102528Y0115516D01*
X0103442Y0116430D02*
X0100865Y0113852D01*
X0100865Y0110207D01*
X0103442Y0107630D01*
X0107087Y0107630D01*
X0109665Y0110207D01*
X0109665Y0113852D01*
X0107087Y0116430D01*
X0103442Y0116430D01*
X0103442Y0117630D02*
X0107087Y0117630D01*
X0109665Y0120207D01*
X0109665Y0123852D01*
X0107087Y0126430D01*
X0103442Y0126430D01*
X0100865Y0123852D01*
X0100865Y0120207D01*
X0103442Y0117630D01*
X0102359Y0118713D02*
X0085298Y0118713D01*
X0083953Y0117115D02*
X0145169Y0117115D01*
X0145169Y0118713D02*
X0118170Y0118713D01*
X0117087Y0117630D02*
X0119665Y0120207D01*
X0119665Y0123852D01*
X0117087Y0126430D01*
X0113442Y0126430D01*
X0110865Y0123852D01*
X0110865Y0120207D01*
X0113442Y0117630D01*
X0117087Y0117630D01*
X0117087Y0116430D02*
X0113442Y0116430D01*
X0110865Y0113852D01*
X0110865Y0110207D01*
X0113442Y0107630D01*
X0117087Y0107630D01*
X0119665Y0110207D01*
X0119665Y0113852D01*
X0117087Y0116430D01*
X0118001Y0115516D02*
X0145169Y0115516D01*
X0145169Y0113918D02*
X0119599Y0113918D01*
X0119665Y0112319D02*
X0145169Y0112319D01*
X0145169Y0110721D02*
X0119665Y0110721D01*
X0118579Y0109122D02*
X0145169Y0109122D01*
X0145169Y0107524D02*
X0089699Y0107524D01*
X0088101Y0109122D02*
X0101950Y0109122D01*
X0100865Y0110721D02*
X0086502Y0110721D01*
X0084904Y0112319D02*
X0100865Y0112319D01*
X0100930Y0113918D02*
X0083305Y0113918D01*
X0086897Y0120312D02*
X0100865Y0120312D01*
X0100865Y0121910D02*
X0088495Y0121910D01*
X0090094Y0123509D02*
X0100865Y0123509D01*
X0102119Y0125107D02*
X0091692Y0125107D01*
X0093291Y0126706D02*
X0145169Y0126706D01*
X0145169Y0128304D02*
X0118327Y0128304D01*
X0117253Y0127230D02*
X0120065Y0130042D01*
X0120065Y0131830D01*
X0115465Y0131830D01*
X0115465Y0132230D01*
X0120065Y0132230D01*
X0120065Y0134018D01*
X0117253Y0136830D01*
X0115465Y0136830D01*
X0115465Y0132230D01*
X0115065Y0132230D01*
X0115065Y0136830D01*
X0113276Y0136830D01*
X0110465Y0134018D01*
X0110465Y0132230D01*
X0115064Y0132230D01*
X0115064Y0131830D01*
X0110465Y0131830D01*
X0110465Y0130042D01*
X0113276Y0127230D01*
X0115065Y0127230D01*
X0115065Y0131830D01*
X0115465Y0131830D01*
X0115465Y0127230D01*
X0117253Y0127230D01*
X0115465Y0128304D02*
X0115065Y0128304D01*
X0115065Y0129903D02*
X0115465Y0129903D01*
X0115465Y0131501D02*
X0115065Y0131501D01*
X0115065Y0133100D02*
X0115465Y0133100D01*
X0115465Y0134698D02*
X0115065Y0134698D01*
X0115065Y0136297D02*
X0115465Y0136297D01*
X0117786Y0136297D02*
X0145169Y0136297D01*
X0145169Y0137895D02*
X0104481Y0137895D01*
X0103442Y0136430D02*
X0100865Y0133852D01*
X0100865Y0130207D01*
X0103442Y0127630D01*
X0107087Y0127630D01*
X0109665Y0130207D01*
X0109665Y0133852D01*
X0107087Y0136430D01*
X0103442Y0136430D01*
X0103309Y0136297D02*
X0102882Y0136297D01*
X0101710Y0134698D02*
X0101284Y0134698D01*
X0100865Y0133100D02*
X0099685Y0133100D01*
X0100865Y0131501D02*
X0098087Y0131501D01*
X0096488Y0129903D02*
X0101169Y0129903D01*
X0102768Y0128304D02*
X0094890Y0128304D01*
X0092669Y0141092D02*
X0036331Y0141092D01*
X0037929Y0139494D02*
X0079386Y0139494D01*
X0078850Y0137895D02*
X0039528Y0137895D01*
X0041126Y0136297D02*
X0079254Y0136297D01*
X0085489Y0148890D02*
X0089134Y0148890D01*
X0091712Y0151467D01*
X0091712Y0155112D01*
X0089134Y0157690D01*
X0085489Y0157690D01*
X0082912Y0155112D01*
X0082912Y0151467D01*
X0085489Y0148890D01*
X0085294Y0149085D02*
X0046028Y0149085D01*
X0047599Y0150683D02*
X0083696Y0150683D01*
X0082912Y0152282D02*
X0048261Y0152282D01*
X0048275Y0153880D02*
X0082912Y0153880D01*
X0083278Y0155479D02*
X0047772Y0155479D01*
X0046517Y0157077D02*
X0084877Y0157077D01*
X0089747Y0157077D02*
X0094877Y0157077D01*
X0093278Y0155479D02*
X0091345Y0155479D01*
X0091712Y0153880D02*
X0092912Y0153880D01*
X0092912Y0152282D02*
X0091712Y0152282D01*
X0090928Y0150683D02*
X0093696Y0150683D01*
X0095294Y0149085D02*
X0089329Y0149085D01*
X0094268Y0142691D02*
X0034732Y0142691D01*
X0033134Y0144289D02*
X0095866Y0144289D01*
X0097465Y0145888D02*
X0031535Y0145888D01*
X0033175Y0149085D02*
X0033575Y0149085D01*
X0033575Y0150683D02*
X0033175Y0150683D01*
X0033175Y0152282D02*
X0033575Y0152282D01*
X0033575Y0153880D02*
X0033175Y0153880D01*
X0033175Y0155479D02*
X0033575Y0155479D01*
X0033575Y0157077D02*
X0033175Y0157077D01*
X0037082Y0157077D02*
X0040233Y0157077D01*
X0038978Y0155479D02*
X0038208Y0155479D01*
X0037995Y0150683D02*
X0039151Y0150683D01*
X0040722Y0149085D02*
X0036604Y0149085D01*
X0042725Y0134698D02*
X0062875Y0134698D01*
X0061277Y0133100D02*
X0044323Y0133100D01*
X0045922Y0131501D02*
X0059678Y0131501D01*
X0058080Y0129903D02*
X0047520Y0129903D01*
X0049119Y0128304D02*
X0056481Y0128304D01*
X0054883Y0126706D02*
X0051699Y0126706D01*
X0058097Y0120312D02*
X0067303Y0120312D01*
X0067300Y0121910D02*
X0059695Y0121910D01*
X0061294Y0123509D02*
X0067300Y0123509D01*
X0067300Y0125107D02*
X0062893Y0125107D01*
X0064491Y0126706D02*
X0067300Y0126706D01*
X0067300Y0128304D02*
X0066090Y0128304D01*
X0091298Y0105925D02*
X0145169Y0105925D01*
X0145169Y0104327D02*
X0092896Y0104327D01*
X0094495Y0102728D02*
X0145169Y0102728D01*
X0145169Y0101130D02*
X0096093Y0101130D01*
X0097692Y0099531D02*
X0145169Y0099531D01*
X0145169Y0097933D02*
X0099290Y0097933D01*
X0100889Y0096334D02*
X0145169Y0096334D01*
X0145169Y0094736D02*
X0102487Y0094736D01*
X0104086Y0093137D02*
X0145169Y0093137D01*
X0145169Y0091539D02*
X0105685Y0091539D01*
X0107283Y0089940D02*
X0145169Y0089940D01*
X0145169Y0088341D02*
X0108882Y0088341D01*
X0110480Y0086743D02*
X0145169Y0086743D01*
X0145169Y0085144D02*
X0134048Y0085144D01*
X0135646Y0083546D02*
X0145169Y0083546D01*
X0145169Y0081947D02*
X0135916Y0081947D01*
X0135916Y0080349D02*
X0145169Y0080349D01*
X0145169Y0078750D02*
X0135615Y0078750D01*
X0134016Y0077152D02*
X0145169Y0077152D01*
X0145169Y0075553D02*
X0133639Y0075553D01*
X0135237Y0073955D02*
X0145169Y0073955D01*
X0145169Y0072356D02*
X0135916Y0072356D01*
X0135916Y0070758D02*
X0145169Y0070758D01*
X0145169Y0069159D02*
X0135916Y0069159D01*
X0134425Y0067561D02*
X0145169Y0067561D01*
X0145169Y0065962D02*
X0133795Y0065962D01*
X0135394Y0064364D02*
X0145169Y0064364D01*
X0145169Y0062765D02*
X0136316Y0062765D01*
X0136316Y0060964D02*
X0131016Y0060964D01*
X0131016Y0055664D01*
X0133094Y0055664D01*
X0136316Y0058886D01*
X0136316Y0060964D01*
X0136316Y0059568D02*
X0145169Y0059568D01*
X0145169Y0057970D02*
X0135400Y0057970D01*
X0133801Y0056371D02*
X0145169Y0056371D01*
X0145169Y0054773D02*
X0004100Y0054773D01*
X0004100Y0056371D02*
X0118396Y0056371D01*
X0116797Y0057970D02*
X0004100Y0057970D01*
X0004100Y0059568D02*
X0115716Y0059568D01*
X0115716Y0061167D02*
X0004100Y0061167D01*
X0004100Y0062765D02*
X0115716Y0062765D01*
X0116803Y0064364D02*
X0004100Y0064364D01*
X0004100Y0065962D02*
X0118402Y0065962D01*
X0117206Y0067561D02*
X0004100Y0067561D01*
X0004100Y0069159D02*
X0115716Y0069159D01*
X0115716Y0070758D02*
X0004100Y0070758D01*
X0004100Y0072356D02*
X0115716Y0072356D01*
X0116394Y0073955D02*
X0004100Y0073955D01*
X0004100Y0075553D02*
X0117461Y0075553D01*
X0115263Y0077152D02*
X0004100Y0077152D01*
X0004100Y0078750D02*
X0113664Y0078750D01*
X0112066Y0080349D02*
X0004100Y0080349D01*
X0004100Y0053174D02*
X0145169Y0053174D01*
X0145169Y0051576D02*
X0004100Y0051576D01*
X0004100Y0049977D02*
X0145169Y0049977D01*
X0145169Y0048379D02*
X0004100Y0048379D01*
X0004100Y0046780D02*
X0145169Y0046780D01*
X0145169Y0045182D02*
X0004100Y0045182D01*
X0004100Y0043583D02*
X0145169Y0043583D01*
X0145169Y0041985D02*
X0004100Y0041985D01*
X0004100Y0040386D02*
X0145169Y0040386D01*
X0145169Y0038788D02*
X0004100Y0038788D01*
X0004100Y0037189D02*
X0145169Y0037189D01*
X0145169Y0035591D02*
X0004100Y0035591D01*
X0004100Y0033992D02*
X0145169Y0033992D01*
X0145169Y0032394D02*
X0004100Y0032394D01*
X0004100Y0030795D02*
X0145169Y0030795D01*
X0145169Y0029197D02*
X0004100Y0029197D01*
X0004100Y0027598D02*
X0064641Y0027598D01*
X0065124Y0028080D02*
X0063978Y0026935D01*
X0063358Y0025438D01*
X0063358Y0023818D01*
X0063978Y0022322D01*
X0065124Y0021177D01*
X0066620Y0020557D01*
X0068240Y0020557D01*
X0069736Y0021177D01*
X0070882Y0022322D01*
X0071502Y0023818D01*
X0071502Y0025438D01*
X0070882Y0026935D01*
X0069736Y0028080D01*
X0068240Y0028700D01*
X0066620Y0028700D01*
X0065124Y0028080D01*
X0063591Y0026000D02*
X0004100Y0026000D01*
X0004100Y0024401D02*
X0008936Y0024401D01*
X0008740Y0024320D02*
X0006321Y0021901D01*
X0005012Y0018740D01*
X0005012Y0015319D01*
X0006321Y0012159D01*
X0008740Y0009740D01*
X0011901Y0008431D01*
X0015322Y0008431D01*
X0018482Y0009740D01*
X0020901Y0012159D01*
X0022210Y0015319D01*
X0022210Y0018740D01*
X0020901Y0021901D01*
X0018482Y0024320D01*
X0015322Y0025629D01*
X0011901Y0025629D01*
X0008740Y0024320D01*
X0007223Y0022803D02*
X0004100Y0022803D01*
X0004100Y0021204D02*
X0006032Y0021204D01*
X0005370Y0019605D02*
X0004100Y0019605D01*
X0004100Y0018007D02*
X0005012Y0018007D01*
X0005012Y0016408D02*
X0004100Y0016408D01*
X0004100Y0014810D02*
X0005223Y0014810D01*
X0005885Y0013211D02*
X0004100Y0013211D01*
X0004100Y0011613D02*
X0006867Y0011613D01*
X0008465Y0010014D02*
X0004100Y0010014D01*
X0004100Y0008416D02*
X0145169Y0008416D01*
X0145169Y0010014D02*
X0140804Y0010014D01*
X0140529Y0009740D02*
X0142948Y0012159D01*
X0144257Y0015319D01*
X0144257Y0018740D01*
X0142948Y0021901D01*
X0140529Y0024320D01*
X0137369Y0025629D01*
X0133948Y0025629D01*
X0130787Y0024320D01*
X0128368Y0021901D01*
X0127059Y0018740D01*
X0127059Y0015319D01*
X0128368Y0012159D01*
X0130787Y0009740D01*
X0133948Y0008431D01*
X0137369Y0008431D01*
X0140529Y0009740D01*
X0142402Y0011613D02*
X0145169Y0011613D01*
X0145169Y0013211D02*
X0143384Y0013211D01*
X0144046Y0014810D02*
X0145169Y0014810D01*
X0145169Y0016408D02*
X0144257Y0016408D01*
X0144257Y0018007D02*
X0145169Y0018007D01*
X0145169Y0019605D02*
X0143899Y0019605D01*
X0143237Y0021204D02*
X0145169Y0021204D01*
X0145169Y0022803D02*
X0142047Y0022803D01*
X0140334Y0024401D02*
X0145169Y0024401D01*
X0145169Y0026000D02*
X0088592Y0026000D01*
X0088824Y0025438D02*
X0088205Y0026935D01*
X0087059Y0028080D01*
X0085563Y0028700D01*
X0083943Y0028700D01*
X0082446Y0028080D01*
X0081301Y0026935D01*
X0080681Y0025438D01*
X0080681Y0023818D01*
X0081301Y0022322D01*
X0082446Y0021177D01*
X0083943Y0020557D01*
X0085563Y0020557D01*
X0087059Y0021177D01*
X0088205Y0022322D01*
X0088824Y0023818D01*
X0088824Y0025438D01*
X0088824Y0024401D02*
X0130983Y0024401D01*
X0129270Y0022803D02*
X0088404Y0022803D01*
X0087087Y0021204D02*
X0128080Y0021204D01*
X0127417Y0019605D02*
X0021852Y0019605D01*
X0022210Y0018007D02*
X0127059Y0018007D01*
X0127059Y0016408D02*
X0022210Y0016408D01*
X0021999Y0014810D02*
X0127270Y0014810D01*
X0127932Y0013211D02*
X0021337Y0013211D01*
X0020355Y0011613D02*
X0128914Y0011613D01*
X0130513Y0010014D02*
X0018757Y0010014D01*
X0021190Y0021204D02*
X0065096Y0021204D01*
X0063779Y0022803D02*
X0020000Y0022803D01*
X0018286Y0024401D02*
X0063358Y0024401D01*
X0069764Y0021204D02*
X0082419Y0021204D01*
X0081102Y0022803D02*
X0071081Y0022803D01*
X0071502Y0024401D02*
X0080681Y0024401D01*
X0080914Y0026000D02*
X0071269Y0026000D01*
X0070218Y0027598D02*
X0081964Y0027598D01*
X0087541Y0027598D02*
X0145169Y0027598D01*
X0131016Y0056371D02*
X0130616Y0056371D01*
X0130616Y0057970D02*
X0131016Y0057970D01*
X0131016Y0059568D02*
X0130616Y0059568D01*
X0131016Y0061167D02*
X0145169Y0061167D01*
X0127830Y0056371D02*
X0123236Y0056371D01*
X0124834Y0057970D02*
X0126232Y0057970D01*
X0115716Y0081947D02*
X0115276Y0081947D01*
X0115985Y0083546D02*
X0113677Y0083546D01*
X0112079Y0085144D02*
X0117584Y0085144D01*
X0124048Y0085144D02*
X0127584Y0085144D01*
X0125985Y0083546D02*
X0125646Y0083546D01*
X0111950Y0109122D02*
X0108579Y0109122D01*
X0109665Y0110721D02*
X0110865Y0110721D01*
X0110865Y0112319D02*
X0109665Y0112319D01*
X0109599Y0113918D02*
X0110930Y0113918D01*
X0112528Y0115516D02*
X0108001Y0115516D01*
X0108170Y0118713D02*
X0112359Y0118713D01*
X0110865Y0120312D02*
X0109665Y0120312D01*
X0109665Y0121910D02*
X0110865Y0121910D01*
X0110865Y0123509D02*
X0109665Y0123509D01*
X0108410Y0125107D02*
X0112119Y0125107D01*
X0112202Y0128304D02*
X0107761Y0128304D01*
X0109360Y0129903D02*
X0110603Y0129903D01*
X0110465Y0131501D02*
X0109665Y0131501D01*
X0109665Y0133100D02*
X0110465Y0133100D01*
X0111145Y0134698D02*
X0108819Y0134698D01*
X0107220Y0136297D02*
X0112743Y0136297D01*
X0107678Y0141092D02*
X0145169Y0141092D01*
X0145169Y0139494D02*
X0106079Y0139494D01*
X0109276Y0142691D02*
X0145169Y0142691D01*
X0145169Y0144289D02*
X0110875Y0144289D01*
X0112473Y0145888D02*
X0145169Y0145888D01*
X0145169Y0147486D02*
X0114072Y0147486D01*
X0119329Y0149085D02*
X0125294Y0149085D01*
X0125489Y0148890D02*
X0129134Y0148890D01*
X0131712Y0151467D01*
X0131712Y0155112D01*
X0129134Y0157690D01*
X0125489Y0157690D01*
X0122912Y0155112D01*
X0122912Y0151467D01*
X0125489Y0148890D01*
X0123696Y0150683D02*
X0120928Y0150683D01*
X0121712Y0152282D02*
X0122912Y0152282D01*
X0122912Y0153880D02*
X0121712Y0153880D01*
X0121345Y0155479D02*
X0123278Y0155479D01*
X0124877Y0157077D02*
X0119747Y0157077D01*
X0129747Y0157077D02*
X0134311Y0157077D01*
X0135324Y0158090D02*
X0132512Y0155278D01*
X0132512Y0153490D01*
X0137112Y0153490D01*
X0137112Y0158090D01*
X0135324Y0158090D01*
X0137112Y0157077D02*
X0137512Y0157077D01*
X0137512Y0158090D02*
X0137512Y0153490D01*
X0137112Y0153490D01*
X0137112Y0153090D01*
X0132512Y0153090D01*
X0132512Y0151302D01*
X0135324Y0148490D01*
X0137112Y0148490D01*
X0137112Y0153090D01*
X0137512Y0153090D01*
X0137512Y0153490D01*
X0142112Y0153490D01*
X0142112Y0155278D01*
X0139300Y0158090D01*
X0137512Y0158090D01*
X0137512Y0155479D02*
X0137112Y0155479D01*
X0137112Y0153880D02*
X0137512Y0153880D01*
X0137512Y0153090D02*
X0142112Y0153090D01*
X0142112Y0151302D01*
X0139300Y0148490D01*
X0137512Y0148490D01*
X0137512Y0153090D01*
X0137512Y0152282D02*
X0137112Y0152282D01*
X0137112Y0150683D02*
X0137512Y0150683D01*
X0137512Y0149085D02*
X0137112Y0149085D01*
X0134728Y0149085D02*
X0129329Y0149085D01*
X0130928Y0150683D02*
X0133130Y0150683D01*
X0132512Y0152282D02*
X0131712Y0152282D01*
X0131712Y0153880D02*
X0132512Y0153880D01*
X0132713Y0155479D02*
X0131345Y0155479D01*
X0140312Y0157077D02*
X0145169Y0157077D01*
X0145169Y0155479D02*
X0141911Y0155479D01*
X0142112Y0153880D02*
X0145169Y0153880D01*
X0145169Y0152282D02*
X0142112Y0152282D01*
X0141494Y0150683D02*
X0145169Y0150683D01*
X0145169Y0149085D02*
X0139895Y0149085D01*
X0145169Y0161873D02*
X0070603Y0161873D01*
X0072804Y0163472D02*
X0145169Y0163472D01*
X0145169Y0165070D02*
X0074197Y0165070D01*
X0074859Y0166669D02*
X0145169Y0166669D01*
X0145169Y0168267D02*
X0075360Y0168267D01*
X0075360Y0169866D02*
X0145169Y0169866D01*
X0145169Y0171464D02*
X0075292Y0171464D01*
X0074630Y0173063D02*
X0145169Y0173063D01*
X0145169Y0174661D02*
X0073850Y0174661D01*
X0072251Y0176260D02*
X0145169Y0176260D01*
X0145169Y0134698D02*
X0119384Y0134698D01*
X0120065Y0133100D02*
X0145169Y0133100D01*
X0145169Y0131501D02*
X0120065Y0131501D01*
X0119926Y0129903D02*
X0145169Y0129903D01*
X0145169Y0125107D02*
X0118410Y0125107D01*
X0119665Y0123509D02*
X0145169Y0123509D01*
X0145169Y0121910D02*
X0119665Y0121910D01*
X0119665Y0120312D02*
X0145169Y0120312D01*
X0100876Y0091539D02*
X0096500Y0091539D01*
X0096500Y0093137D02*
X0099278Y0093137D01*
X0097679Y0094736D02*
X0096500Y0094736D01*
M02*
