G75*
%MOIN*%
%OFA0B0*%
%FSLAX25Y25*%
%IPPOS*%
%LPD*%
%AMOC8*
5,1,8,0,0,1.08239X$1,22.5*
%
%ADD10C,0.00000*%
%ADD11R,0.05906X0.05118*%
%ADD12R,0.07087X0.06299*%
%ADD13R,0.05900X0.07900*%
%ADD14R,0.15000X0.07900*%
%ADD15R,0.07098X0.06299*%
%ADD16R,0.10236X0.03150*%
%ADD17R,0.05118X0.05906*%
%ADD18R,0.06299X0.09055*%
%ADD19R,0.03937X0.05512*%
%ADD20R,0.05800X0.02000*%
%ADD21R,0.02000X0.05800*%
%ADD22R,0.01969X0.09843*%
%ADD23R,0.07874X0.09843*%
%ADD24OC8,0.06000*%
%ADD25C,0.07000*%
%ADD26OC8,0.07400*%
%ADD27C,0.00600*%
%ADD28C,0.02700*%
%ADD29C,0.01600*%
D10*
X0001800Y0005219D02*
X0001800Y0182384D01*
X0147469Y0182384D01*
X0147469Y0005219D01*
X0001800Y0005219D01*
X0007312Y0017030D02*
X0007314Y0017188D01*
X0007320Y0017346D01*
X0007330Y0017504D01*
X0007344Y0017662D01*
X0007362Y0017819D01*
X0007383Y0017976D01*
X0007409Y0018132D01*
X0007439Y0018288D01*
X0007472Y0018443D01*
X0007510Y0018596D01*
X0007551Y0018749D01*
X0007596Y0018901D01*
X0007645Y0019052D01*
X0007698Y0019201D01*
X0007754Y0019349D01*
X0007814Y0019495D01*
X0007878Y0019640D01*
X0007946Y0019783D01*
X0008017Y0019925D01*
X0008091Y0020065D01*
X0008169Y0020202D01*
X0008251Y0020338D01*
X0008335Y0020472D01*
X0008424Y0020603D01*
X0008515Y0020732D01*
X0008610Y0020859D01*
X0008707Y0020984D01*
X0008808Y0021106D01*
X0008912Y0021225D01*
X0009019Y0021342D01*
X0009129Y0021456D01*
X0009242Y0021567D01*
X0009357Y0021676D01*
X0009475Y0021781D01*
X0009596Y0021883D01*
X0009719Y0021983D01*
X0009845Y0022079D01*
X0009973Y0022172D01*
X0010103Y0022262D01*
X0010236Y0022348D01*
X0010371Y0022432D01*
X0010507Y0022511D01*
X0010646Y0022588D01*
X0010787Y0022660D01*
X0010929Y0022730D01*
X0011073Y0022795D01*
X0011219Y0022857D01*
X0011366Y0022915D01*
X0011515Y0022970D01*
X0011665Y0023021D01*
X0011816Y0023068D01*
X0011968Y0023111D01*
X0012121Y0023150D01*
X0012276Y0023186D01*
X0012431Y0023217D01*
X0012587Y0023245D01*
X0012743Y0023269D01*
X0012900Y0023289D01*
X0013058Y0023305D01*
X0013215Y0023317D01*
X0013374Y0023325D01*
X0013532Y0023329D01*
X0013690Y0023329D01*
X0013848Y0023325D01*
X0014007Y0023317D01*
X0014164Y0023305D01*
X0014322Y0023289D01*
X0014479Y0023269D01*
X0014635Y0023245D01*
X0014791Y0023217D01*
X0014946Y0023186D01*
X0015101Y0023150D01*
X0015254Y0023111D01*
X0015406Y0023068D01*
X0015557Y0023021D01*
X0015707Y0022970D01*
X0015856Y0022915D01*
X0016003Y0022857D01*
X0016149Y0022795D01*
X0016293Y0022730D01*
X0016435Y0022660D01*
X0016576Y0022588D01*
X0016715Y0022511D01*
X0016851Y0022432D01*
X0016986Y0022348D01*
X0017119Y0022262D01*
X0017249Y0022172D01*
X0017377Y0022079D01*
X0017503Y0021983D01*
X0017626Y0021883D01*
X0017747Y0021781D01*
X0017865Y0021676D01*
X0017980Y0021567D01*
X0018093Y0021456D01*
X0018203Y0021342D01*
X0018310Y0021225D01*
X0018414Y0021106D01*
X0018515Y0020984D01*
X0018612Y0020859D01*
X0018707Y0020732D01*
X0018798Y0020603D01*
X0018887Y0020472D01*
X0018971Y0020338D01*
X0019053Y0020202D01*
X0019131Y0020065D01*
X0019205Y0019925D01*
X0019276Y0019783D01*
X0019344Y0019640D01*
X0019408Y0019495D01*
X0019468Y0019349D01*
X0019524Y0019201D01*
X0019577Y0019052D01*
X0019626Y0018901D01*
X0019671Y0018749D01*
X0019712Y0018596D01*
X0019750Y0018443D01*
X0019783Y0018288D01*
X0019813Y0018132D01*
X0019839Y0017976D01*
X0019860Y0017819D01*
X0019878Y0017662D01*
X0019892Y0017504D01*
X0019902Y0017346D01*
X0019908Y0017188D01*
X0019910Y0017030D01*
X0019908Y0016872D01*
X0019902Y0016714D01*
X0019892Y0016556D01*
X0019878Y0016398D01*
X0019860Y0016241D01*
X0019839Y0016084D01*
X0019813Y0015928D01*
X0019783Y0015772D01*
X0019750Y0015617D01*
X0019712Y0015464D01*
X0019671Y0015311D01*
X0019626Y0015159D01*
X0019577Y0015008D01*
X0019524Y0014859D01*
X0019468Y0014711D01*
X0019408Y0014565D01*
X0019344Y0014420D01*
X0019276Y0014277D01*
X0019205Y0014135D01*
X0019131Y0013995D01*
X0019053Y0013858D01*
X0018971Y0013722D01*
X0018887Y0013588D01*
X0018798Y0013457D01*
X0018707Y0013328D01*
X0018612Y0013201D01*
X0018515Y0013076D01*
X0018414Y0012954D01*
X0018310Y0012835D01*
X0018203Y0012718D01*
X0018093Y0012604D01*
X0017980Y0012493D01*
X0017865Y0012384D01*
X0017747Y0012279D01*
X0017626Y0012177D01*
X0017503Y0012077D01*
X0017377Y0011981D01*
X0017249Y0011888D01*
X0017119Y0011798D01*
X0016986Y0011712D01*
X0016851Y0011628D01*
X0016715Y0011549D01*
X0016576Y0011472D01*
X0016435Y0011400D01*
X0016293Y0011330D01*
X0016149Y0011265D01*
X0016003Y0011203D01*
X0015856Y0011145D01*
X0015707Y0011090D01*
X0015557Y0011039D01*
X0015406Y0010992D01*
X0015254Y0010949D01*
X0015101Y0010910D01*
X0014946Y0010874D01*
X0014791Y0010843D01*
X0014635Y0010815D01*
X0014479Y0010791D01*
X0014322Y0010771D01*
X0014164Y0010755D01*
X0014007Y0010743D01*
X0013848Y0010735D01*
X0013690Y0010731D01*
X0013532Y0010731D01*
X0013374Y0010735D01*
X0013215Y0010743D01*
X0013058Y0010755D01*
X0012900Y0010771D01*
X0012743Y0010791D01*
X0012587Y0010815D01*
X0012431Y0010843D01*
X0012276Y0010874D01*
X0012121Y0010910D01*
X0011968Y0010949D01*
X0011816Y0010992D01*
X0011665Y0011039D01*
X0011515Y0011090D01*
X0011366Y0011145D01*
X0011219Y0011203D01*
X0011073Y0011265D01*
X0010929Y0011330D01*
X0010787Y0011400D01*
X0010646Y0011472D01*
X0010507Y0011549D01*
X0010371Y0011628D01*
X0010236Y0011712D01*
X0010103Y0011798D01*
X0009973Y0011888D01*
X0009845Y0011981D01*
X0009719Y0012077D01*
X0009596Y0012177D01*
X0009475Y0012279D01*
X0009357Y0012384D01*
X0009242Y0012493D01*
X0009129Y0012604D01*
X0009019Y0012718D01*
X0008912Y0012835D01*
X0008808Y0012954D01*
X0008707Y0013076D01*
X0008610Y0013201D01*
X0008515Y0013328D01*
X0008424Y0013457D01*
X0008335Y0013588D01*
X0008251Y0013722D01*
X0008169Y0013858D01*
X0008091Y0013995D01*
X0008017Y0014135D01*
X0007946Y0014277D01*
X0007878Y0014420D01*
X0007814Y0014565D01*
X0007754Y0014711D01*
X0007698Y0014859D01*
X0007645Y0015008D01*
X0007596Y0015159D01*
X0007551Y0015311D01*
X0007510Y0015464D01*
X0007472Y0015617D01*
X0007439Y0015772D01*
X0007409Y0015928D01*
X0007383Y0016084D01*
X0007362Y0016241D01*
X0007344Y0016398D01*
X0007330Y0016556D01*
X0007320Y0016714D01*
X0007314Y0016872D01*
X0007312Y0017030D01*
X0065658Y0024628D02*
X0065660Y0024712D01*
X0065666Y0024795D01*
X0065676Y0024878D01*
X0065690Y0024961D01*
X0065707Y0025043D01*
X0065729Y0025124D01*
X0065754Y0025203D01*
X0065783Y0025282D01*
X0065816Y0025359D01*
X0065852Y0025434D01*
X0065892Y0025508D01*
X0065935Y0025580D01*
X0065982Y0025649D01*
X0066032Y0025716D01*
X0066085Y0025781D01*
X0066141Y0025843D01*
X0066199Y0025903D01*
X0066261Y0025960D01*
X0066325Y0026013D01*
X0066392Y0026064D01*
X0066461Y0026111D01*
X0066532Y0026156D01*
X0066605Y0026196D01*
X0066680Y0026233D01*
X0066757Y0026267D01*
X0066835Y0026297D01*
X0066914Y0026323D01*
X0066995Y0026346D01*
X0067077Y0026364D01*
X0067159Y0026379D01*
X0067242Y0026390D01*
X0067325Y0026397D01*
X0067409Y0026400D01*
X0067493Y0026399D01*
X0067576Y0026394D01*
X0067660Y0026385D01*
X0067742Y0026372D01*
X0067824Y0026356D01*
X0067905Y0026335D01*
X0067986Y0026311D01*
X0068064Y0026283D01*
X0068142Y0026251D01*
X0068218Y0026215D01*
X0068292Y0026176D01*
X0068364Y0026134D01*
X0068434Y0026088D01*
X0068502Y0026039D01*
X0068567Y0025987D01*
X0068630Y0025932D01*
X0068690Y0025874D01*
X0068748Y0025813D01*
X0068802Y0025749D01*
X0068854Y0025683D01*
X0068902Y0025615D01*
X0068947Y0025544D01*
X0068988Y0025471D01*
X0069027Y0025397D01*
X0069061Y0025321D01*
X0069092Y0025243D01*
X0069119Y0025164D01*
X0069143Y0025083D01*
X0069162Y0025002D01*
X0069178Y0024920D01*
X0069190Y0024837D01*
X0069198Y0024753D01*
X0069202Y0024670D01*
X0069202Y0024586D01*
X0069198Y0024503D01*
X0069190Y0024419D01*
X0069178Y0024336D01*
X0069162Y0024254D01*
X0069143Y0024173D01*
X0069119Y0024092D01*
X0069092Y0024013D01*
X0069061Y0023935D01*
X0069027Y0023859D01*
X0068988Y0023785D01*
X0068947Y0023712D01*
X0068902Y0023641D01*
X0068854Y0023573D01*
X0068802Y0023507D01*
X0068748Y0023443D01*
X0068690Y0023382D01*
X0068630Y0023324D01*
X0068567Y0023269D01*
X0068502Y0023217D01*
X0068434Y0023168D01*
X0068364Y0023122D01*
X0068292Y0023080D01*
X0068218Y0023041D01*
X0068142Y0023005D01*
X0068064Y0022973D01*
X0067986Y0022945D01*
X0067905Y0022921D01*
X0067824Y0022900D01*
X0067742Y0022884D01*
X0067660Y0022871D01*
X0067576Y0022862D01*
X0067493Y0022857D01*
X0067409Y0022856D01*
X0067325Y0022859D01*
X0067242Y0022866D01*
X0067159Y0022877D01*
X0067077Y0022892D01*
X0066995Y0022910D01*
X0066914Y0022933D01*
X0066835Y0022959D01*
X0066757Y0022989D01*
X0066680Y0023023D01*
X0066605Y0023060D01*
X0066532Y0023100D01*
X0066461Y0023145D01*
X0066392Y0023192D01*
X0066325Y0023243D01*
X0066261Y0023296D01*
X0066199Y0023353D01*
X0066141Y0023413D01*
X0066085Y0023475D01*
X0066032Y0023540D01*
X0065982Y0023607D01*
X0065935Y0023676D01*
X0065892Y0023748D01*
X0065852Y0023822D01*
X0065816Y0023897D01*
X0065783Y0023974D01*
X0065754Y0024053D01*
X0065729Y0024132D01*
X0065707Y0024213D01*
X0065690Y0024295D01*
X0065676Y0024378D01*
X0065666Y0024461D01*
X0065660Y0024544D01*
X0065658Y0024628D01*
X0082981Y0024628D02*
X0082983Y0024712D01*
X0082989Y0024795D01*
X0082999Y0024878D01*
X0083013Y0024961D01*
X0083030Y0025043D01*
X0083052Y0025124D01*
X0083077Y0025203D01*
X0083106Y0025282D01*
X0083139Y0025359D01*
X0083175Y0025434D01*
X0083215Y0025508D01*
X0083258Y0025580D01*
X0083305Y0025649D01*
X0083355Y0025716D01*
X0083408Y0025781D01*
X0083464Y0025843D01*
X0083522Y0025903D01*
X0083584Y0025960D01*
X0083648Y0026013D01*
X0083715Y0026064D01*
X0083784Y0026111D01*
X0083855Y0026156D01*
X0083928Y0026196D01*
X0084003Y0026233D01*
X0084080Y0026267D01*
X0084158Y0026297D01*
X0084237Y0026323D01*
X0084318Y0026346D01*
X0084400Y0026364D01*
X0084482Y0026379D01*
X0084565Y0026390D01*
X0084648Y0026397D01*
X0084732Y0026400D01*
X0084816Y0026399D01*
X0084899Y0026394D01*
X0084983Y0026385D01*
X0085065Y0026372D01*
X0085147Y0026356D01*
X0085228Y0026335D01*
X0085309Y0026311D01*
X0085387Y0026283D01*
X0085465Y0026251D01*
X0085541Y0026215D01*
X0085615Y0026176D01*
X0085687Y0026134D01*
X0085757Y0026088D01*
X0085825Y0026039D01*
X0085890Y0025987D01*
X0085953Y0025932D01*
X0086013Y0025874D01*
X0086071Y0025813D01*
X0086125Y0025749D01*
X0086177Y0025683D01*
X0086225Y0025615D01*
X0086270Y0025544D01*
X0086311Y0025471D01*
X0086350Y0025397D01*
X0086384Y0025321D01*
X0086415Y0025243D01*
X0086442Y0025164D01*
X0086466Y0025083D01*
X0086485Y0025002D01*
X0086501Y0024920D01*
X0086513Y0024837D01*
X0086521Y0024753D01*
X0086525Y0024670D01*
X0086525Y0024586D01*
X0086521Y0024503D01*
X0086513Y0024419D01*
X0086501Y0024336D01*
X0086485Y0024254D01*
X0086466Y0024173D01*
X0086442Y0024092D01*
X0086415Y0024013D01*
X0086384Y0023935D01*
X0086350Y0023859D01*
X0086311Y0023785D01*
X0086270Y0023712D01*
X0086225Y0023641D01*
X0086177Y0023573D01*
X0086125Y0023507D01*
X0086071Y0023443D01*
X0086013Y0023382D01*
X0085953Y0023324D01*
X0085890Y0023269D01*
X0085825Y0023217D01*
X0085757Y0023168D01*
X0085687Y0023122D01*
X0085615Y0023080D01*
X0085541Y0023041D01*
X0085465Y0023005D01*
X0085387Y0022973D01*
X0085309Y0022945D01*
X0085228Y0022921D01*
X0085147Y0022900D01*
X0085065Y0022884D01*
X0084983Y0022871D01*
X0084899Y0022862D01*
X0084816Y0022857D01*
X0084732Y0022856D01*
X0084648Y0022859D01*
X0084565Y0022866D01*
X0084482Y0022877D01*
X0084400Y0022892D01*
X0084318Y0022910D01*
X0084237Y0022933D01*
X0084158Y0022959D01*
X0084080Y0022989D01*
X0084003Y0023023D01*
X0083928Y0023060D01*
X0083855Y0023100D01*
X0083784Y0023145D01*
X0083715Y0023192D01*
X0083648Y0023243D01*
X0083584Y0023296D01*
X0083522Y0023353D01*
X0083464Y0023413D01*
X0083408Y0023475D01*
X0083355Y0023540D01*
X0083305Y0023607D01*
X0083258Y0023676D01*
X0083215Y0023748D01*
X0083175Y0023822D01*
X0083139Y0023897D01*
X0083106Y0023974D01*
X0083077Y0024053D01*
X0083052Y0024132D01*
X0083030Y0024213D01*
X0083013Y0024295D01*
X0082999Y0024378D01*
X0082989Y0024461D01*
X0082983Y0024544D01*
X0082981Y0024628D01*
X0129359Y0017030D02*
X0129361Y0017188D01*
X0129367Y0017346D01*
X0129377Y0017504D01*
X0129391Y0017662D01*
X0129409Y0017819D01*
X0129430Y0017976D01*
X0129456Y0018132D01*
X0129486Y0018288D01*
X0129519Y0018443D01*
X0129557Y0018596D01*
X0129598Y0018749D01*
X0129643Y0018901D01*
X0129692Y0019052D01*
X0129745Y0019201D01*
X0129801Y0019349D01*
X0129861Y0019495D01*
X0129925Y0019640D01*
X0129993Y0019783D01*
X0130064Y0019925D01*
X0130138Y0020065D01*
X0130216Y0020202D01*
X0130298Y0020338D01*
X0130382Y0020472D01*
X0130471Y0020603D01*
X0130562Y0020732D01*
X0130657Y0020859D01*
X0130754Y0020984D01*
X0130855Y0021106D01*
X0130959Y0021225D01*
X0131066Y0021342D01*
X0131176Y0021456D01*
X0131289Y0021567D01*
X0131404Y0021676D01*
X0131522Y0021781D01*
X0131643Y0021883D01*
X0131766Y0021983D01*
X0131892Y0022079D01*
X0132020Y0022172D01*
X0132150Y0022262D01*
X0132283Y0022348D01*
X0132418Y0022432D01*
X0132554Y0022511D01*
X0132693Y0022588D01*
X0132834Y0022660D01*
X0132976Y0022730D01*
X0133120Y0022795D01*
X0133266Y0022857D01*
X0133413Y0022915D01*
X0133562Y0022970D01*
X0133712Y0023021D01*
X0133863Y0023068D01*
X0134015Y0023111D01*
X0134168Y0023150D01*
X0134323Y0023186D01*
X0134478Y0023217D01*
X0134634Y0023245D01*
X0134790Y0023269D01*
X0134947Y0023289D01*
X0135105Y0023305D01*
X0135262Y0023317D01*
X0135421Y0023325D01*
X0135579Y0023329D01*
X0135737Y0023329D01*
X0135895Y0023325D01*
X0136054Y0023317D01*
X0136211Y0023305D01*
X0136369Y0023289D01*
X0136526Y0023269D01*
X0136682Y0023245D01*
X0136838Y0023217D01*
X0136993Y0023186D01*
X0137148Y0023150D01*
X0137301Y0023111D01*
X0137453Y0023068D01*
X0137604Y0023021D01*
X0137754Y0022970D01*
X0137903Y0022915D01*
X0138050Y0022857D01*
X0138196Y0022795D01*
X0138340Y0022730D01*
X0138482Y0022660D01*
X0138623Y0022588D01*
X0138762Y0022511D01*
X0138898Y0022432D01*
X0139033Y0022348D01*
X0139166Y0022262D01*
X0139296Y0022172D01*
X0139424Y0022079D01*
X0139550Y0021983D01*
X0139673Y0021883D01*
X0139794Y0021781D01*
X0139912Y0021676D01*
X0140027Y0021567D01*
X0140140Y0021456D01*
X0140250Y0021342D01*
X0140357Y0021225D01*
X0140461Y0021106D01*
X0140562Y0020984D01*
X0140659Y0020859D01*
X0140754Y0020732D01*
X0140845Y0020603D01*
X0140934Y0020472D01*
X0141018Y0020338D01*
X0141100Y0020202D01*
X0141178Y0020065D01*
X0141252Y0019925D01*
X0141323Y0019783D01*
X0141391Y0019640D01*
X0141455Y0019495D01*
X0141515Y0019349D01*
X0141571Y0019201D01*
X0141624Y0019052D01*
X0141673Y0018901D01*
X0141718Y0018749D01*
X0141759Y0018596D01*
X0141797Y0018443D01*
X0141830Y0018288D01*
X0141860Y0018132D01*
X0141886Y0017976D01*
X0141907Y0017819D01*
X0141925Y0017662D01*
X0141939Y0017504D01*
X0141949Y0017346D01*
X0141955Y0017188D01*
X0141957Y0017030D01*
X0141955Y0016872D01*
X0141949Y0016714D01*
X0141939Y0016556D01*
X0141925Y0016398D01*
X0141907Y0016241D01*
X0141886Y0016084D01*
X0141860Y0015928D01*
X0141830Y0015772D01*
X0141797Y0015617D01*
X0141759Y0015464D01*
X0141718Y0015311D01*
X0141673Y0015159D01*
X0141624Y0015008D01*
X0141571Y0014859D01*
X0141515Y0014711D01*
X0141455Y0014565D01*
X0141391Y0014420D01*
X0141323Y0014277D01*
X0141252Y0014135D01*
X0141178Y0013995D01*
X0141100Y0013858D01*
X0141018Y0013722D01*
X0140934Y0013588D01*
X0140845Y0013457D01*
X0140754Y0013328D01*
X0140659Y0013201D01*
X0140562Y0013076D01*
X0140461Y0012954D01*
X0140357Y0012835D01*
X0140250Y0012718D01*
X0140140Y0012604D01*
X0140027Y0012493D01*
X0139912Y0012384D01*
X0139794Y0012279D01*
X0139673Y0012177D01*
X0139550Y0012077D01*
X0139424Y0011981D01*
X0139296Y0011888D01*
X0139166Y0011798D01*
X0139033Y0011712D01*
X0138898Y0011628D01*
X0138762Y0011549D01*
X0138623Y0011472D01*
X0138482Y0011400D01*
X0138340Y0011330D01*
X0138196Y0011265D01*
X0138050Y0011203D01*
X0137903Y0011145D01*
X0137754Y0011090D01*
X0137604Y0011039D01*
X0137453Y0010992D01*
X0137301Y0010949D01*
X0137148Y0010910D01*
X0136993Y0010874D01*
X0136838Y0010843D01*
X0136682Y0010815D01*
X0136526Y0010791D01*
X0136369Y0010771D01*
X0136211Y0010755D01*
X0136054Y0010743D01*
X0135895Y0010735D01*
X0135737Y0010731D01*
X0135579Y0010731D01*
X0135421Y0010735D01*
X0135262Y0010743D01*
X0135105Y0010755D01*
X0134947Y0010771D01*
X0134790Y0010791D01*
X0134634Y0010815D01*
X0134478Y0010843D01*
X0134323Y0010874D01*
X0134168Y0010910D01*
X0134015Y0010949D01*
X0133863Y0010992D01*
X0133712Y0011039D01*
X0133562Y0011090D01*
X0133413Y0011145D01*
X0133266Y0011203D01*
X0133120Y0011265D01*
X0132976Y0011330D01*
X0132834Y0011400D01*
X0132693Y0011472D01*
X0132554Y0011549D01*
X0132418Y0011628D01*
X0132283Y0011712D01*
X0132150Y0011798D01*
X0132020Y0011888D01*
X0131892Y0011981D01*
X0131766Y0012077D01*
X0131643Y0012177D01*
X0131522Y0012279D01*
X0131404Y0012384D01*
X0131289Y0012493D01*
X0131176Y0012604D01*
X0131066Y0012718D01*
X0130959Y0012835D01*
X0130855Y0012954D01*
X0130754Y0013076D01*
X0130657Y0013201D01*
X0130562Y0013328D01*
X0130471Y0013457D01*
X0130382Y0013588D01*
X0130298Y0013722D01*
X0130216Y0013858D01*
X0130138Y0013995D01*
X0130064Y0014135D01*
X0129993Y0014277D01*
X0129925Y0014420D01*
X0129861Y0014565D01*
X0129801Y0014711D01*
X0129745Y0014859D01*
X0129692Y0015008D01*
X0129643Y0015159D01*
X0129598Y0015311D01*
X0129557Y0015464D01*
X0129519Y0015617D01*
X0129486Y0015772D01*
X0129456Y0015928D01*
X0129430Y0016084D01*
X0129409Y0016241D01*
X0129391Y0016398D01*
X0129377Y0016556D01*
X0129367Y0016714D01*
X0129361Y0016872D01*
X0129359Y0017030D01*
X0060462Y0169589D02*
X0060464Y0169747D01*
X0060470Y0169905D01*
X0060480Y0170063D01*
X0060494Y0170221D01*
X0060512Y0170378D01*
X0060533Y0170535D01*
X0060559Y0170691D01*
X0060589Y0170847D01*
X0060622Y0171002D01*
X0060660Y0171155D01*
X0060701Y0171308D01*
X0060746Y0171460D01*
X0060795Y0171611D01*
X0060848Y0171760D01*
X0060904Y0171908D01*
X0060964Y0172054D01*
X0061028Y0172199D01*
X0061096Y0172342D01*
X0061167Y0172484D01*
X0061241Y0172624D01*
X0061319Y0172761D01*
X0061401Y0172897D01*
X0061485Y0173031D01*
X0061574Y0173162D01*
X0061665Y0173291D01*
X0061760Y0173418D01*
X0061857Y0173543D01*
X0061958Y0173665D01*
X0062062Y0173784D01*
X0062169Y0173901D01*
X0062279Y0174015D01*
X0062392Y0174126D01*
X0062507Y0174235D01*
X0062625Y0174340D01*
X0062746Y0174442D01*
X0062869Y0174542D01*
X0062995Y0174638D01*
X0063123Y0174731D01*
X0063253Y0174821D01*
X0063386Y0174907D01*
X0063521Y0174991D01*
X0063657Y0175070D01*
X0063796Y0175147D01*
X0063937Y0175219D01*
X0064079Y0175289D01*
X0064223Y0175354D01*
X0064369Y0175416D01*
X0064516Y0175474D01*
X0064665Y0175529D01*
X0064815Y0175580D01*
X0064966Y0175627D01*
X0065118Y0175670D01*
X0065271Y0175709D01*
X0065426Y0175745D01*
X0065581Y0175776D01*
X0065737Y0175804D01*
X0065893Y0175828D01*
X0066050Y0175848D01*
X0066208Y0175864D01*
X0066365Y0175876D01*
X0066524Y0175884D01*
X0066682Y0175888D01*
X0066840Y0175888D01*
X0066998Y0175884D01*
X0067157Y0175876D01*
X0067314Y0175864D01*
X0067472Y0175848D01*
X0067629Y0175828D01*
X0067785Y0175804D01*
X0067941Y0175776D01*
X0068096Y0175745D01*
X0068251Y0175709D01*
X0068404Y0175670D01*
X0068556Y0175627D01*
X0068707Y0175580D01*
X0068857Y0175529D01*
X0069006Y0175474D01*
X0069153Y0175416D01*
X0069299Y0175354D01*
X0069443Y0175289D01*
X0069585Y0175219D01*
X0069726Y0175147D01*
X0069865Y0175070D01*
X0070001Y0174991D01*
X0070136Y0174907D01*
X0070269Y0174821D01*
X0070399Y0174731D01*
X0070527Y0174638D01*
X0070653Y0174542D01*
X0070776Y0174442D01*
X0070897Y0174340D01*
X0071015Y0174235D01*
X0071130Y0174126D01*
X0071243Y0174015D01*
X0071353Y0173901D01*
X0071460Y0173784D01*
X0071564Y0173665D01*
X0071665Y0173543D01*
X0071762Y0173418D01*
X0071857Y0173291D01*
X0071948Y0173162D01*
X0072037Y0173031D01*
X0072121Y0172897D01*
X0072203Y0172761D01*
X0072281Y0172624D01*
X0072355Y0172484D01*
X0072426Y0172342D01*
X0072494Y0172199D01*
X0072558Y0172054D01*
X0072618Y0171908D01*
X0072674Y0171760D01*
X0072727Y0171611D01*
X0072776Y0171460D01*
X0072821Y0171308D01*
X0072862Y0171155D01*
X0072900Y0171002D01*
X0072933Y0170847D01*
X0072963Y0170691D01*
X0072989Y0170535D01*
X0073010Y0170378D01*
X0073028Y0170221D01*
X0073042Y0170063D01*
X0073052Y0169905D01*
X0073058Y0169747D01*
X0073060Y0169589D01*
X0073058Y0169431D01*
X0073052Y0169273D01*
X0073042Y0169115D01*
X0073028Y0168957D01*
X0073010Y0168800D01*
X0072989Y0168643D01*
X0072963Y0168487D01*
X0072933Y0168331D01*
X0072900Y0168176D01*
X0072862Y0168023D01*
X0072821Y0167870D01*
X0072776Y0167718D01*
X0072727Y0167567D01*
X0072674Y0167418D01*
X0072618Y0167270D01*
X0072558Y0167124D01*
X0072494Y0166979D01*
X0072426Y0166836D01*
X0072355Y0166694D01*
X0072281Y0166554D01*
X0072203Y0166417D01*
X0072121Y0166281D01*
X0072037Y0166147D01*
X0071948Y0166016D01*
X0071857Y0165887D01*
X0071762Y0165760D01*
X0071665Y0165635D01*
X0071564Y0165513D01*
X0071460Y0165394D01*
X0071353Y0165277D01*
X0071243Y0165163D01*
X0071130Y0165052D01*
X0071015Y0164943D01*
X0070897Y0164838D01*
X0070776Y0164736D01*
X0070653Y0164636D01*
X0070527Y0164540D01*
X0070399Y0164447D01*
X0070269Y0164357D01*
X0070136Y0164271D01*
X0070001Y0164187D01*
X0069865Y0164108D01*
X0069726Y0164031D01*
X0069585Y0163959D01*
X0069443Y0163889D01*
X0069299Y0163824D01*
X0069153Y0163762D01*
X0069006Y0163704D01*
X0068857Y0163649D01*
X0068707Y0163598D01*
X0068556Y0163551D01*
X0068404Y0163508D01*
X0068251Y0163469D01*
X0068096Y0163433D01*
X0067941Y0163402D01*
X0067785Y0163374D01*
X0067629Y0163350D01*
X0067472Y0163330D01*
X0067314Y0163314D01*
X0067157Y0163302D01*
X0066998Y0163294D01*
X0066840Y0163290D01*
X0066682Y0163290D01*
X0066524Y0163294D01*
X0066365Y0163302D01*
X0066208Y0163314D01*
X0066050Y0163330D01*
X0065893Y0163350D01*
X0065737Y0163374D01*
X0065581Y0163402D01*
X0065426Y0163433D01*
X0065271Y0163469D01*
X0065118Y0163508D01*
X0064966Y0163551D01*
X0064815Y0163598D01*
X0064665Y0163649D01*
X0064516Y0163704D01*
X0064369Y0163762D01*
X0064223Y0163824D01*
X0064079Y0163889D01*
X0063937Y0163959D01*
X0063796Y0164031D01*
X0063657Y0164108D01*
X0063521Y0164187D01*
X0063386Y0164271D01*
X0063253Y0164357D01*
X0063123Y0164447D01*
X0062995Y0164540D01*
X0062869Y0164636D01*
X0062746Y0164736D01*
X0062625Y0164838D01*
X0062507Y0164943D01*
X0062392Y0165052D01*
X0062279Y0165163D01*
X0062169Y0165277D01*
X0062062Y0165394D01*
X0061958Y0165513D01*
X0061857Y0165635D01*
X0061760Y0165760D01*
X0061665Y0165887D01*
X0061574Y0166016D01*
X0061485Y0166147D01*
X0061401Y0166281D01*
X0061319Y0166417D01*
X0061241Y0166554D01*
X0061167Y0166694D01*
X0061096Y0166836D01*
X0061028Y0166979D01*
X0060964Y0167124D01*
X0060904Y0167270D01*
X0060848Y0167418D01*
X0060795Y0167567D01*
X0060746Y0167718D01*
X0060701Y0167870D01*
X0060660Y0168023D01*
X0060622Y0168176D01*
X0060589Y0168331D01*
X0060559Y0168487D01*
X0060533Y0168643D01*
X0060512Y0168800D01*
X0060494Y0168957D01*
X0060480Y0169115D01*
X0060470Y0169273D01*
X0060464Y0169431D01*
X0060462Y0169589D01*
D11*
X0050776Y0075809D03*
X0050776Y0068329D03*
X0050776Y0055770D03*
X0050776Y0048290D03*
X0039241Y0048290D03*
X0039241Y0055770D03*
X0095068Y0068329D03*
X0095068Y0075809D03*
D12*
X0095068Y0057542D03*
X0095068Y0046518D03*
D13*
X0084991Y0074312D03*
X0075991Y0074312D03*
X0066991Y0074312D03*
D14*
X0076091Y0049512D03*
D15*
X0039241Y0066392D03*
X0039241Y0077589D03*
D16*
X0048808Y0096006D03*
X0048808Y0101912D03*
X0048808Y0107817D03*
D17*
X0076564Y0132542D03*
X0084044Y0132542D03*
D18*
X0039241Y0037463D03*
X0039241Y0012660D03*
D19*
X0058769Y0126676D03*
X0062509Y0135337D03*
X0055028Y0135337D03*
D20*
X0059391Y0118148D03*
X0059391Y0115048D03*
X0059391Y0111848D03*
X0059391Y0108748D03*
X0059391Y0105548D03*
X0059391Y0102448D03*
X0059391Y0099248D03*
X0059391Y0096148D03*
X0092791Y0096148D03*
X0092791Y0099248D03*
X0092791Y0102448D03*
X0092791Y0105548D03*
X0092791Y0108748D03*
X0092791Y0111848D03*
X0092791Y0115048D03*
X0092791Y0118148D03*
D21*
X0087091Y0123848D03*
X0083991Y0123848D03*
X0080791Y0123848D03*
X0077691Y0123848D03*
X0074491Y0123848D03*
X0071391Y0123848D03*
X0068191Y0123848D03*
X0065091Y0123848D03*
X0065091Y0090448D03*
X0068191Y0090448D03*
X0071391Y0090448D03*
X0074491Y0090448D03*
X0077691Y0090448D03*
X0080791Y0090448D03*
X0083991Y0090448D03*
X0087091Y0090448D03*
D22*
X0082391Y0034471D03*
X0079241Y0034471D03*
X0076091Y0034471D03*
X0072942Y0034471D03*
X0069792Y0034471D03*
D23*
X0058375Y0034471D03*
X0058375Y0012817D03*
X0093808Y0012817D03*
X0093808Y0034471D03*
D24*
X0105265Y0112030D03*
X0105265Y0122030D03*
X0105265Y0132030D03*
X0115265Y0132030D03*
X0115265Y0122030D03*
X0115265Y0112030D03*
X0117312Y0153290D03*
X0127312Y0153290D03*
X0137312Y0153290D03*
X0107312Y0153290D03*
X0097312Y0153290D03*
X0087312Y0153290D03*
X0028375Y0136518D03*
X0028375Y0126518D03*
X0028375Y0116518D03*
X0028375Y0106518D03*
X0028375Y0096518D03*
X0028375Y0086518D03*
D25*
X0033375Y0153290D03*
X0043375Y0153290D03*
X0023375Y0153290D03*
X0013375Y0153290D03*
D26*
X0120816Y0081164D03*
X0120816Y0071164D03*
X0120816Y0061164D03*
X0130816Y0061164D03*
X0130816Y0071164D03*
X0130816Y0081164D03*
D27*
X0130800Y0081419D01*
X0108000Y0104219D01*
X0107400Y0104219D01*
X0102600Y0099419D01*
X0093000Y0099419D01*
X0092791Y0099248D01*
X0092791Y0096148D02*
X0093000Y0095819D01*
X0106200Y0095819D01*
X0120600Y0081419D01*
X0120816Y0081164D01*
X0120600Y0071219D02*
X0120816Y0071164D01*
X0120600Y0071219D02*
X0101400Y0090419D01*
X0087600Y0090419D01*
X0087091Y0090448D01*
X0084000Y0090419D02*
X0083991Y0090448D01*
X0084000Y0090419D02*
X0084000Y0083819D01*
X0091200Y0076619D01*
X0091200Y0072419D01*
X0091800Y0071819D01*
X0110400Y0071819D01*
X0120600Y0061619D01*
X0120816Y0061164D01*
X0122400Y0056219D02*
X0118800Y0056219D01*
X0106800Y0068219D01*
X0095400Y0068219D01*
X0095068Y0068329D01*
X0094800Y0061619D02*
X0085200Y0071219D01*
X0085200Y0074219D01*
X0084991Y0074312D01*
X0076200Y0074219D02*
X0076200Y0068219D01*
X0094800Y0049619D01*
X0094800Y0046619D01*
X0095068Y0046518D01*
X0099000Y0042419D02*
X0090600Y0042419D01*
X0082800Y0034619D01*
X0082391Y0034471D01*
X0082200Y0034019D01*
X0082200Y0029819D01*
X0081000Y0028619D01*
X0054000Y0028619D01*
X0049800Y0032819D01*
X0046800Y0032819D01*
X0046800Y0052019D01*
X0050400Y0055619D01*
X0050776Y0055770D01*
X0051000Y0056219D01*
X0051000Y0061619D01*
X0055200Y0065819D01*
X0055200Y0071219D01*
X0054600Y0071819D01*
X0045000Y0071819D01*
X0039600Y0077219D01*
X0039241Y0077589D01*
X0035400Y0082019D02*
X0035400Y0095219D01*
X0028800Y0101819D01*
X0028800Y0106019D01*
X0028375Y0106518D01*
X0028200Y0106619D01*
X0028200Y0110819D01*
X0008400Y0130619D01*
X0008400Y0154619D01*
X0012000Y0158219D01*
X0038400Y0158219D01*
X0043200Y0153419D01*
X0043375Y0153290D01*
X0043800Y0152819D01*
X0082200Y0152819D01*
X0085800Y0149219D01*
X0127200Y0149219D01*
X0127200Y0152819D01*
X0127312Y0153290D01*
X0127200Y0149219D02*
X0127200Y0133619D01*
X0115800Y0122219D01*
X0115265Y0122030D01*
X0115800Y0121619D01*
X0115800Y0112619D01*
X0115265Y0112030D01*
X0115200Y0112019D01*
X0107400Y0104219D01*
X0106800Y0107819D02*
X0103800Y0107819D01*
X0103200Y0108419D01*
X0093000Y0108419D01*
X0092791Y0108748D01*
X0088800Y0119819D02*
X0085800Y0119819D01*
X0084000Y0121619D01*
X0084000Y0123419D01*
X0083991Y0123848D01*
X0087000Y0124019D02*
X0087091Y0123848D01*
X0087000Y0124019D02*
X0087000Y0126419D01*
X0085200Y0128219D01*
X0081000Y0128219D01*
X0076800Y0132419D01*
X0076564Y0132542D01*
X0075600Y0128219D02*
X0073800Y0128219D01*
X0072600Y0129419D01*
X0072600Y0135419D01*
X0075000Y0137819D01*
X0081600Y0137819D01*
X0084000Y0139019D02*
X0082800Y0140219D01*
X0075600Y0140219D01*
X0070800Y0135419D01*
X0063000Y0135419D01*
X0062509Y0135337D01*
X0063600Y0130619D02*
X0032400Y0130619D01*
X0028800Y0127019D01*
X0028375Y0126518D01*
X0027000Y0122219D02*
X0024000Y0125219D01*
X0024000Y0128219D01*
X0028200Y0132419D01*
X0044400Y0132419D01*
X0053400Y0141419D01*
X0101400Y0141419D01*
X0109200Y0133619D01*
X0109200Y0116219D01*
X0105600Y0112619D01*
X0105265Y0112030D01*
X0106800Y0107819D02*
X0111000Y0112019D01*
X0111000Y0127619D01*
X0115200Y0131819D01*
X0115265Y0132030D01*
X0105265Y0132030D02*
X0105000Y0131819D01*
X0100800Y0131819D01*
X0088800Y0119819D01*
X0081600Y0118619D02*
X0080400Y0119819D01*
X0080400Y0123419D01*
X0080791Y0123848D01*
X0077691Y0123848D02*
X0077400Y0124019D01*
X0077400Y0126419D01*
X0075600Y0128219D01*
X0074491Y0123848D02*
X0074400Y0123419D01*
X0074400Y0120419D01*
X0073800Y0119819D01*
X0075000Y0118619D01*
X0071391Y0123848D02*
X0070800Y0124019D01*
X0070800Y0127019D01*
X0066600Y0131219D01*
X0063600Y0130619D02*
X0067800Y0126419D01*
X0067800Y0124019D01*
X0068191Y0123848D01*
X0058769Y0126676D02*
X0058200Y0126419D01*
X0034200Y0126419D01*
X0030000Y0122219D01*
X0027000Y0122219D01*
X0026400Y0121019D02*
X0013800Y0133619D01*
X0013800Y0152819D01*
X0013375Y0153290D01*
X0026400Y0121019D02*
X0029400Y0121019D01*
X0034800Y0115619D01*
X0058800Y0115619D01*
X0059391Y0115048D01*
X0059391Y0118148D02*
X0058800Y0118619D01*
X0056400Y0118619D01*
X0051000Y0124019D01*
X0051000Y0135419D02*
X0054600Y0135419D01*
X0055028Y0135337D01*
X0059391Y0111848D02*
X0058800Y0111419D01*
X0056400Y0111419D01*
X0055200Y0110219D01*
X0054600Y0110219D01*
X0054000Y0110819D01*
X0054000Y0111419D01*
X0054000Y0110819D02*
X0043800Y0110819D01*
X0042600Y0109619D01*
X0042600Y0106019D01*
X0046200Y0102419D01*
X0048600Y0102419D01*
X0048808Y0101912D01*
X0049200Y0107219D02*
X0048808Y0107817D01*
X0049200Y0107219D02*
X0051600Y0107219D01*
X0055200Y0103619D01*
X0055200Y0101219D01*
X0057000Y0099419D01*
X0058800Y0099419D01*
X0059391Y0099248D01*
X0058800Y0096419D02*
X0059391Y0096148D01*
X0058800Y0096419D02*
X0049200Y0096419D01*
X0048808Y0096006D01*
X0056400Y0106019D02*
X0055200Y0107219D01*
X0055200Y0110219D01*
X0056400Y0106019D02*
X0058800Y0106019D01*
X0059391Y0105548D01*
X0059400Y0108419D02*
X0059391Y0108748D01*
X0059400Y0108419D02*
X0062400Y0108419D01*
X0063600Y0107219D01*
X0063600Y0104219D01*
X0063000Y0103619D01*
X0065400Y0101219D01*
X0065400Y0096419D01*
X0059400Y0090419D01*
X0063600Y0086219D01*
X0064200Y0086219D01*
X0075600Y0074819D01*
X0075991Y0074312D01*
X0076200Y0074219D01*
X0066991Y0074312D02*
X0066600Y0074219D01*
X0066600Y0058019D01*
X0056400Y0047819D01*
X0069600Y0034619D01*
X0069792Y0034471D01*
X0056400Y0047819D02*
X0051000Y0047819D01*
X0050776Y0048290D01*
X0039600Y0047819D02*
X0039600Y0037619D01*
X0039241Y0037463D01*
X0039000Y0037019D01*
X0039000Y0026819D01*
X0034800Y0022619D01*
X0034800Y0007619D01*
X0035400Y0007019D01*
X0042600Y0007019D01*
X0053400Y0017819D01*
X0053400Y0018419D01*
X0055800Y0020819D01*
X0097200Y0020819D01*
X0135600Y0059219D01*
X0135600Y0063419D01*
X0129600Y0069419D01*
X0130816Y0071164D01*
X0130800Y0070619D01*
X0129600Y0069419D01*
X0126000Y0065819D01*
X0126000Y0059819D01*
X0122400Y0056219D01*
X0123000Y0053219D02*
X0130800Y0061019D01*
X0130816Y0061164D01*
X0123000Y0053219D02*
X0099600Y0053219D01*
X0095400Y0057419D01*
X0095068Y0057542D01*
X0094800Y0058019D01*
X0094800Y0061619D01*
X0099600Y0053219D02*
X0099600Y0043019D01*
X0099000Y0042419D01*
X0095068Y0075809D02*
X0094800Y0076019D01*
X0094800Y0088019D01*
X0072600Y0094619D02*
X0072600Y0094748D01*
X0063000Y0103619D02*
X0062400Y0103019D01*
X0059400Y0103019D01*
X0059391Y0102448D01*
X0059400Y0090419D02*
X0048000Y0079019D01*
X0047400Y0079019D01*
X0044400Y0082019D01*
X0035400Y0082019D01*
X0034200Y0080819D01*
X0034200Y0063419D01*
X0039000Y0058619D01*
X0039000Y0056219D01*
X0039241Y0055770D01*
X0039241Y0048290D02*
X0039600Y0047819D01*
X0046800Y0032819D02*
X0039600Y0025619D01*
X0039600Y0013019D01*
X0039241Y0012660D01*
X0039241Y0066392D02*
X0039600Y0066419D01*
X0041400Y0068219D01*
X0050400Y0068219D01*
X0050776Y0068329D01*
X0050776Y0075809D02*
X0050400Y0076019D01*
X0047400Y0079019D01*
X0084044Y0132542D02*
X0084000Y0133019D01*
X0084000Y0139019D01*
D28*
X0081600Y0137819D03*
X0066600Y0131219D03*
X0075000Y0118619D03*
X0081600Y0118619D03*
X0094800Y0088019D03*
X0054000Y0111419D03*
X0051000Y0124019D03*
X0051000Y0135419D03*
D29*
X0049071Y0139494D02*
X0031622Y0139494D01*
X0032775Y0138341D02*
X0030197Y0140918D01*
X0026552Y0140918D01*
X0023975Y0138341D01*
X0023975Y0134696D01*
X0026024Y0132647D01*
X0022300Y0128923D01*
X0022300Y0127523D01*
X0015500Y0134323D01*
X0015500Y0148866D01*
X0016150Y0149136D01*
X0017529Y0150514D01*
X0018275Y0152315D01*
X0018275Y0154264D01*
X0017529Y0156065D01*
X0016150Y0157444D01*
X0014349Y0158190D01*
X0012400Y0158190D01*
X0010599Y0157444D01*
X0009221Y0156065D01*
X0008475Y0154264D01*
X0008475Y0152315D01*
X0009221Y0150514D01*
X0010599Y0149136D01*
X0012100Y0148514D01*
X0012100Y0132915D01*
X0013096Y0131919D01*
X0025324Y0119690D01*
X0023975Y0118341D01*
X0023975Y0114696D01*
X0026552Y0112118D01*
X0030197Y0112118D01*
X0032775Y0114696D01*
X0032775Y0115240D01*
X0034096Y0113919D01*
X0052849Y0113919D01*
X0052442Y0113750D01*
X0051669Y0112977D01*
X0051479Y0112519D01*
X0043096Y0112519D01*
X0041896Y0111319D01*
X0040900Y0110323D01*
X0040900Y0105315D01*
X0042290Y0103925D01*
X0042290Y0099757D01*
X0043088Y0098959D01*
X0042290Y0098161D01*
X0042290Y0093852D01*
X0043110Y0093031D01*
X0054506Y0093031D01*
X0055326Y0093852D01*
X0055326Y0094334D01*
X0055911Y0093748D01*
X0062691Y0093748D01*
X0062691Y0086968D01*
X0063511Y0086148D01*
X0069771Y0086148D01*
X0069791Y0086168D01*
X0069811Y0086148D01*
X0076071Y0086148D01*
X0076091Y0086168D01*
X0076111Y0086148D01*
X0082300Y0086148D01*
X0082300Y0083115D01*
X0085753Y0079662D01*
X0081461Y0079662D01*
X0080648Y0078848D01*
X0080619Y0078957D01*
X0080382Y0079367D01*
X0080047Y0079702D01*
X0079636Y0079939D01*
X0079178Y0080062D01*
X0076666Y0080062D01*
X0076666Y0074987D01*
X0075316Y0074987D01*
X0075316Y0080062D01*
X0072804Y0080062D01*
X0072347Y0079939D01*
X0071936Y0079702D01*
X0071601Y0079367D01*
X0071364Y0078957D01*
X0071335Y0078848D01*
X0070521Y0079662D01*
X0063461Y0079662D01*
X0062641Y0078842D01*
X0062641Y0069782D01*
X0063461Y0068962D01*
X0064900Y0068962D01*
X0064900Y0058723D01*
X0055696Y0049519D01*
X0055129Y0049519D01*
X0055129Y0051429D01*
X0054528Y0052030D01*
X0055129Y0052631D01*
X0055129Y0058909D01*
X0054309Y0059729D01*
X0052700Y0059729D01*
X0052700Y0060915D01*
X0055904Y0064119D01*
X0056900Y0065115D01*
X0056900Y0071923D01*
X0056300Y0072523D01*
X0055529Y0073294D01*
X0055529Y0075330D01*
X0051256Y0075330D01*
X0051256Y0076289D01*
X0055529Y0076289D01*
X0055529Y0078605D01*
X0055406Y0079063D01*
X0055169Y0079474D01*
X0054834Y0079809D01*
X0054424Y0080046D01*
X0053966Y0080168D01*
X0051256Y0080168D01*
X0051256Y0076289D01*
X0050297Y0076289D01*
X0050297Y0080168D01*
X0047587Y0080168D01*
X0047129Y0080046D01*
X0046718Y0079809D01*
X0046383Y0079474D01*
X0046146Y0079063D01*
X0046024Y0078605D01*
X0046024Y0076289D01*
X0050297Y0076289D01*
X0050297Y0075330D01*
X0046024Y0075330D01*
X0046024Y0073519D01*
X0045704Y0073519D01*
X0044190Y0075033D01*
X0044190Y0081318D01*
X0043370Y0082139D01*
X0035112Y0082139D01*
X0034292Y0081318D01*
X0034292Y0073859D01*
X0035112Y0073039D01*
X0041375Y0073039D01*
X0043300Y0071115D01*
X0043300Y0071115D01*
X0044296Y0070119D01*
X0046424Y0070119D01*
X0046424Y0069919D01*
X0044190Y0069919D01*
X0044190Y0070122D01*
X0043370Y0070942D01*
X0035112Y0070942D01*
X0034292Y0070122D01*
X0034292Y0062663D01*
X0035112Y0061843D01*
X0043370Y0061843D01*
X0044190Y0062663D01*
X0044190Y0066519D01*
X0046424Y0066519D01*
X0046424Y0065190D01*
X0047244Y0064370D01*
X0051347Y0064370D01*
X0049300Y0062323D01*
X0049300Y0059729D01*
X0047244Y0059729D01*
X0046424Y0058909D01*
X0046424Y0054047D01*
X0045100Y0052723D01*
X0045100Y0033523D01*
X0040700Y0029123D01*
X0040700Y0031535D01*
X0042970Y0031535D01*
X0043791Y0032356D01*
X0043791Y0042570D01*
X0042970Y0043391D01*
X0041300Y0043391D01*
X0041300Y0044331D01*
X0042774Y0044331D01*
X0043594Y0045151D01*
X0043594Y0051429D01*
X0043269Y0051753D01*
X0043299Y0051771D01*
X0043634Y0052106D01*
X0043871Y0052516D01*
X0043994Y0052974D01*
X0043994Y0055291D01*
X0039721Y0055291D01*
X0039721Y0056250D01*
X0043994Y0056250D01*
X0043994Y0058566D01*
X0043871Y0059024D01*
X0043634Y0059434D01*
X0043299Y0059769D01*
X0042888Y0060006D01*
X0042431Y0060129D01*
X0039720Y0060129D01*
X0039720Y0056250D01*
X0038761Y0056250D01*
X0038761Y0055291D01*
X0034488Y0055291D01*
X0034488Y0052974D01*
X0034611Y0052516D01*
X0034848Y0052106D01*
X0035183Y0051771D01*
X0035213Y0051753D01*
X0034888Y0051429D01*
X0034888Y0045151D01*
X0035708Y0044331D01*
X0037900Y0044331D01*
X0037900Y0043391D01*
X0035511Y0043391D01*
X0034691Y0042570D01*
X0034691Y0032356D01*
X0035511Y0031535D01*
X0037300Y0031535D01*
X0037300Y0027523D01*
X0034096Y0024319D01*
X0033100Y0023323D01*
X0033100Y0007519D01*
X0004100Y0007519D01*
X0004100Y0180084D01*
X0145169Y0180084D01*
X0145169Y0007519D01*
X0099145Y0007519D01*
X0099145Y0018318D01*
X0098325Y0019139D01*
X0097924Y0019139D01*
X0136304Y0057519D01*
X0137300Y0058515D01*
X0137300Y0064123D01*
X0134144Y0067279D01*
X0135916Y0069051D01*
X0135916Y0073276D01*
X0133311Y0075881D01*
X0136316Y0078886D01*
X0136316Y0080964D01*
X0131016Y0080964D01*
X0131016Y0081364D01*
X0136316Y0081364D01*
X0136316Y0083442D01*
X0133094Y0086664D01*
X0131016Y0086664D01*
X0131016Y0081364D01*
X0130616Y0081364D01*
X0130616Y0086664D01*
X0128538Y0086664D01*
X0125533Y0083659D01*
X0122928Y0086264D01*
X0118703Y0086264D01*
X0118431Y0085992D01*
X0106904Y0097519D01*
X0097349Y0097519D01*
X0097369Y0097553D01*
X0097491Y0098011D01*
X0097491Y0099248D01*
X0097491Y0100485D01*
X0097369Y0100943D01*
X0097132Y0101353D01*
X0097091Y0101394D01*
X0097091Y0106719D01*
X0102496Y0106719D01*
X0103096Y0106119D01*
X0107504Y0106119D01*
X0110946Y0109561D01*
X0113276Y0107230D01*
X0115065Y0107230D01*
X0115065Y0111830D01*
X0115465Y0111830D01*
X0115465Y0112230D01*
X0120065Y0112230D01*
X0120065Y0114018D01*
X0117253Y0116830D01*
X0115465Y0116830D01*
X0115465Y0112230D01*
X0115065Y0112230D01*
X0115065Y0116830D01*
X0113276Y0116830D01*
X0112700Y0116254D01*
X0112700Y0117806D01*
X0113276Y0117230D01*
X0115065Y0117230D01*
X0115065Y0121830D01*
X0115465Y0121830D01*
X0115465Y0122230D01*
X0120065Y0122230D01*
X0120065Y0124018D01*
X0117253Y0126830D01*
X0115465Y0126830D01*
X0115465Y0122230D01*
X0115065Y0122230D01*
X0115065Y0126830D01*
X0113276Y0126830D01*
X0112700Y0126254D01*
X0112700Y0126915D01*
X0113429Y0127643D01*
X0113442Y0127630D01*
X0117087Y0127630D01*
X0119665Y0130207D01*
X0119665Y0133852D01*
X0117087Y0136430D01*
X0113442Y0136430D01*
X0110900Y0133888D01*
X0110900Y0134323D01*
X0109904Y0135319D01*
X0102104Y0143119D01*
X0052696Y0143119D01*
X0051700Y0142123D01*
X0043696Y0134119D01*
X0032198Y0134119D01*
X0032775Y0134696D01*
X0032775Y0138341D01*
X0032775Y0137895D02*
X0047472Y0137895D01*
X0045874Y0136297D02*
X0032775Y0136297D01*
X0032775Y0134698D02*
X0044275Y0134698D01*
X0050669Y0141092D02*
X0015500Y0141092D01*
X0015500Y0139494D02*
X0025128Y0139494D01*
X0023975Y0137895D02*
X0015500Y0137895D01*
X0015500Y0136297D02*
X0023975Y0136297D01*
X0023975Y0134698D02*
X0015500Y0134698D01*
X0016723Y0133100D02*
X0025571Y0133100D01*
X0024878Y0131501D02*
X0018322Y0131501D01*
X0019920Y0129903D02*
X0023280Y0129903D01*
X0022300Y0128304D02*
X0021519Y0128304D01*
X0019907Y0125107D02*
X0004100Y0125107D01*
X0004100Y0123509D02*
X0021506Y0123509D01*
X0023105Y0121910D02*
X0004100Y0121910D01*
X0004100Y0120312D02*
X0024703Y0120312D01*
X0024347Y0118713D02*
X0004100Y0118713D01*
X0004100Y0117115D02*
X0023975Y0117115D01*
X0023975Y0115516D02*
X0004100Y0115516D01*
X0004100Y0113918D02*
X0024753Y0113918D01*
X0026351Y0112319D02*
X0004100Y0112319D01*
X0004100Y0110721D02*
X0025789Y0110721D01*
X0026387Y0111318D02*
X0023575Y0108506D01*
X0023575Y0106718D01*
X0028175Y0106718D01*
X0028175Y0111318D01*
X0026387Y0111318D01*
X0028175Y0110721D02*
X0028575Y0110721D01*
X0028575Y0111318D02*
X0030363Y0111318D01*
X0033175Y0108506D01*
X0033175Y0106718D01*
X0028575Y0106718D01*
X0028575Y0106318D01*
X0033175Y0106318D01*
X0033175Y0104530D01*
X0030363Y0101718D01*
X0028575Y0101718D01*
X0028575Y0106318D01*
X0028175Y0106318D01*
X0028175Y0101718D01*
X0026387Y0101718D01*
X0023575Y0104530D01*
X0023575Y0106318D01*
X0028175Y0106318D01*
X0028175Y0106718D01*
X0028575Y0106718D01*
X0028575Y0111318D01*
X0030398Y0112319D02*
X0042896Y0112319D01*
X0041298Y0110721D02*
X0030960Y0110721D01*
X0032559Y0109122D02*
X0040900Y0109122D01*
X0040900Y0107524D02*
X0033175Y0107524D01*
X0033175Y0105925D02*
X0040900Y0105925D01*
X0041888Y0104327D02*
X0032972Y0104327D01*
X0031373Y0102728D02*
X0042290Y0102728D01*
X0042290Y0101130D02*
X0004100Y0101130D01*
X0004100Y0102728D02*
X0025377Y0102728D01*
X0026552Y0100918D02*
X0023975Y0098341D01*
X0023975Y0094696D01*
X0026552Y0092118D01*
X0030197Y0092118D01*
X0032775Y0094696D01*
X0032775Y0098341D01*
X0030197Y0100918D01*
X0026552Y0100918D01*
X0025165Y0099531D02*
X0004100Y0099531D01*
X0004100Y0097933D02*
X0023975Y0097933D01*
X0023975Y0096334D02*
X0004100Y0096334D01*
X0004100Y0094736D02*
X0023975Y0094736D01*
X0025533Y0093137D02*
X0004100Y0093137D01*
X0004100Y0091539D02*
X0062691Y0091539D01*
X0062691Y0093137D02*
X0054611Y0093137D01*
X0062691Y0089940D02*
X0031175Y0089940D01*
X0030197Y0090918D02*
X0026552Y0090918D01*
X0023975Y0088341D01*
X0023975Y0084696D01*
X0026552Y0082118D01*
X0030197Y0082118D01*
X0032775Y0084696D01*
X0032775Y0088341D01*
X0030197Y0090918D01*
X0031216Y0093137D02*
X0043004Y0093137D01*
X0042290Y0094736D02*
X0032775Y0094736D01*
X0032775Y0096334D02*
X0042290Y0096334D01*
X0042290Y0097933D02*
X0032775Y0097933D01*
X0031584Y0099531D02*
X0042516Y0099531D01*
X0032774Y0088341D02*
X0062691Y0088341D01*
X0062916Y0086743D02*
X0032775Y0086743D01*
X0032775Y0085144D02*
X0082300Y0085144D01*
X0082300Y0083546D02*
X0031625Y0083546D01*
X0034921Y0081947D02*
X0004100Y0081947D01*
X0004100Y0080349D02*
X0034292Y0080349D01*
X0034292Y0078750D02*
X0004100Y0078750D01*
X0004100Y0077152D02*
X0034292Y0077152D01*
X0034292Y0075553D02*
X0004100Y0075553D01*
X0004100Y0073955D02*
X0034292Y0073955D01*
X0034928Y0070758D02*
X0004100Y0070758D01*
X0004100Y0072356D02*
X0042058Y0072356D01*
X0043554Y0070758D02*
X0043657Y0070758D01*
X0045268Y0073955D02*
X0046024Y0073955D01*
X0044190Y0075553D02*
X0050297Y0075553D01*
X0051256Y0075553D02*
X0062641Y0075553D01*
X0062641Y0073955D02*
X0055529Y0073955D01*
X0056467Y0072356D02*
X0062641Y0072356D01*
X0062641Y0070758D02*
X0056900Y0070758D01*
X0056900Y0069159D02*
X0063264Y0069159D01*
X0064900Y0067561D02*
X0056900Y0067561D01*
X0056900Y0065962D02*
X0064900Y0065962D01*
X0064900Y0064364D02*
X0056149Y0064364D01*
X0054551Y0062765D02*
X0064900Y0062765D01*
X0064900Y0061167D02*
X0052952Y0061167D01*
X0054470Y0059568D02*
X0064900Y0059568D01*
X0064147Y0057970D02*
X0055129Y0057970D01*
X0055129Y0056371D02*
X0062548Y0056371D01*
X0060950Y0054773D02*
X0055129Y0054773D01*
X0055129Y0053174D02*
X0059351Y0053174D01*
X0057753Y0051576D02*
X0054982Y0051576D01*
X0055129Y0049977D02*
X0056154Y0049977D01*
X0058804Y0047819D02*
X0068300Y0057315D01*
X0068300Y0058723D01*
X0068300Y0068962D01*
X0070521Y0068962D01*
X0071335Y0069776D01*
X0071364Y0069667D01*
X0071601Y0069257D01*
X0071936Y0068921D01*
X0072347Y0068684D01*
X0072804Y0068562D01*
X0075316Y0068562D01*
X0075316Y0073637D01*
X0076666Y0073637D01*
X0076666Y0068562D01*
X0079178Y0068562D01*
X0079636Y0068684D01*
X0080047Y0068921D01*
X0080382Y0069257D01*
X0080619Y0069667D01*
X0080648Y0069776D01*
X0081461Y0068962D01*
X0085053Y0068962D01*
X0091923Y0062091D01*
X0090945Y0062091D01*
X0090124Y0061271D01*
X0090124Y0053812D01*
X0090945Y0052992D01*
X0097423Y0052992D01*
X0097900Y0052515D01*
X0097900Y0051468D01*
X0095843Y0051468D01*
X0095843Y0047293D01*
X0094293Y0047293D01*
X0094293Y0051468D01*
X0091287Y0051468D01*
X0090830Y0051345D01*
X0090419Y0051108D01*
X0090084Y0050773D01*
X0089847Y0050362D01*
X0089724Y0049905D01*
X0089724Y0047293D01*
X0094293Y0047293D01*
X0094293Y0045743D01*
X0089724Y0045743D01*
X0089724Y0043947D01*
X0088900Y0043123D01*
X0084775Y0038998D01*
X0084775Y0039972D01*
X0083955Y0040792D01*
X0080826Y0040792D01*
X0080816Y0040781D01*
X0080805Y0040792D01*
X0077677Y0040792D01*
X0077666Y0040781D01*
X0077655Y0040792D01*
X0074527Y0040792D01*
X0074517Y0040781D01*
X0074506Y0040792D01*
X0071378Y0040792D01*
X0071367Y0040781D01*
X0071356Y0040792D01*
X0068228Y0040792D01*
X0067408Y0039972D01*
X0067408Y0039215D01*
X0058804Y0047819D01*
X0059364Y0048379D02*
X0067191Y0048379D01*
X0067191Y0049977D02*
X0060962Y0049977D01*
X0062561Y0051576D02*
X0067191Y0051576D01*
X0067191Y0053174D02*
X0064159Y0053174D01*
X0065758Y0054773D02*
X0067922Y0054773D01*
X0068011Y0054862D02*
X0067191Y0054042D01*
X0067191Y0044982D01*
X0068011Y0044162D01*
X0084171Y0044162D01*
X0084991Y0044982D01*
X0084991Y0054042D01*
X0084171Y0054862D01*
X0068011Y0054862D01*
X0067357Y0056371D02*
X0090124Y0056371D01*
X0090124Y0054773D02*
X0084260Y0054773D01*
X0084991Y0053174D02*
X0090762Y0053174D01*
X0089744Y0049977D02*
X0084991Y0049977D01*
X0084991Y0048379D02*
X0089724Y0048379D01*
X0089724Y0045182D02*
X0084991Y0045182D01*
X0084991Y0046780D02*
X0094293Y0046780D01*
X0094293Y0048379D02*
X0095843Y0048379D01*
X0095843Y0049977D02*
X0094293Y0049977D01*
X0097900Y0051576D02*
X0084991Y0051576D01*
X0090124Y0057970D02*
X0068300Y0057970D01*
X0068300Y0059568D02*
X0090124Y0059568D01*
X0090124Y0061167D02*
X0068300Y0061167D01*
X0068300Y0062765D02*
X0091249Y0062765D01*
X0089651Y0064364D02*
X0068300Y0064364D01*
X0068300Y0065962D02*
X0088052Y0065962D01*
X0086454Y0067561D02*
X0068300Y0067561D01*
X0070719Y0069159D02*
X0071698Y0069159D01*
X0075316Y0069159D02*
X0076666Y0069159D01*
X0076666Y0070758D02*
X0075316Y0070758D01*
X0075316Y0072356D02*
X0076666Y0072356D01*
X0076666Y0075553D02*
X0075316Y0075553D01*
X0075316Y0077152D02*
X0076666Y0077152D01*
X0076666Y0078750D02*
X0075316Y0078750D01*
X0083467Y0081947D02*
X0043561Y0081947D01*
X0044190Y0080349D02*
X0085066Y0080349D01*
X0081264Y0069159D02*
X0080284Y0069159D01*
X0062641Y0077152D02*
X0055529Y0077152D01*
X0055490Y0078750D02*
X0062641Y0078750D01*
X0051256Y0078750D02*
X0050297Y0078750D01*
X0050297Y0077152D02*
X0051256Y0077152D01*
X0046024Y0077152D02*
X0044190Y0077152D01*
X0044190Y0078750D02*
X0046062Y0078750D01*
X0046424Y0065962D02*
X0044190Y0065962D01*
X0044190Y0064364D02*
X0051341Y0064364D01*
X0049742Y0062765D02*
X0044190Y0062765D01*
X0043500Y0059568D02*
X0047083Y0059568D01*
X0046424Y0057970D02*
X0043994Y0057970D01*
X0043994Y0056371D02*
X0046424Y0056371D01*
X0046424Y0054773D02*
X0043994Y0054773D01*
X0043994Y0053174D02*
X0045551Y0053174D01*
X0045100Y0051576D02*
X0043447Y0051576D01*
X0043594Y0049977D02*
X0045100Y0049977D01*
X0045100Y0048379D02*
X0043594Y0048379D01*
X0043594Y0046780D02*
X0045100Y0046780D01*
X0045100Y0045182D02*
X0043594Y0045182D01*
X0045100Y0043583D02*
X0041300Y0043583D01*
X0043791Y0041985D02*
X0045100Y0041985D01*
X0045100Y0040386D02*
X0043791Y0040386D01*
X0043791Y0038788D02*
X0045100Y0038788D01*
X0045100Y0037189D02*
X0043791Y0037189D01*
X0043791Y0035591D02*
X0045100Y0035591D01*
X0045100Y0033992D02*
X0043791Y0033992D01*
X0043791Y0032394D02*
X0043971Y0032394D01*
X0042372Y0030795D02*
X0040700Y0030795D01*
X0040700Y0029197D02*
X0040774Y0029197D01*
X0037300Y0029197D02*
X0004100Y0029197D01*
X0004100Y0030795D02*
X0037300Y0030795D01*
X0034691Y0032394D02*
X0004100Y0032394D01*
X0004100Y0033992D02*
X0034691Y0033992D01*
X0034691Y0035591D02*
X0004100Y0035591D01*
X0004100Y0037189D02*
X0034691Y0037189D01*
X0034691Y0038788D02*
X0004100Y0038788D01*
X0004100Y0040386D02*
X0034691Y0040386D01*
X0034691Y0041985D02*
X0004100Y0041985D01*
X0004100Y0043583D02*
X0037900Y0043583D01*
X0034888Y0045182D02*
X0004100Y0045182D01*
X0004100Y0046780D02*
X0034888Y0046780D01*
X0034888Y0048379D02*
X0004100Y0048379D01*
X0004100Y0049977D02*
X0034888Y0049977D01*
X0035035Y0051576D02*
X0004100Y0051576D01*
X0004100Y0053174D02*
X0034488Y0053174D01*
X0034488Y0054773D02*
X0004100Y0054773D01*
X0004100Y0056371D02*
X0034488Y0056371D01*
X0034488Y0056250D02*
X0038761Y0056250D01*
X0038761Y0060129D01*
X0036051Y0060129D01*
X0035593Y0060006D01*
X0035183Y0059769D01*
X0034848Y0059434D01*
X0034611Y0059024D01*
X0034488Y0058566D01*
X0034488Y0056250D01*
X0034488Y0057970D02*
X0004100Y0057970D01*
X0004100Y0059568D02*
X0034982Y0059568D01*
X0034292Y0062765D02*
X0004100Y0062765D01*
X0004100Y0061167D02*
X0049300Y0061167D01*
X0039720Y0059568D02*
X0038761Y0059568D01*
X0038761Y0057970D02*
X0039720Y0057970D01*
X0039720Y0056371D02*
X0038761Y0056371D01*
X0034292Y0064364D02*
X0004100Y0064364D01*
X0004100Y0065962D02*
X0034292Y0065962D01*
X0034292Y0067561D02*
X0004100Y0067561D01*
X0004100Y0069159D02*
X0034292Y0069159D01*
X0025124Y0083546D02*
X0004100Y0083546D01*
X0004100Y0085144D02*
X0023975Y0085144D01*
X0023975Y0086743D02*
X0004100Y0086743D01*
X0004100Y0088341D02*
X0023976Y0088341D01*
X0025574Y0089940D02*
X0004100Y0089940D01*
X0004100Y0104327D02*
X0023778Y0104327D01*
X0023575Y0105925D02*
X0004100Y0105925D01*
X0004100Y0107524D02*
X0023575Y0107524D01*
X0024191Y0109122D02*
X0004100Y0109122D01*
X0004100Y0126706D02*
X0018309Y0126706D01*
X0016710Y0128304D02*
X0004100Y0128304D01*
X0004100Y0129903D02*
X0015112Y0129903D01*
X0013513Y0131501D02*
X0004100Y0131501D01*
X0004100Y0133100D02*
X0012100Y0133100D01*
X0012100Y0134698D02*
X0004100Y0134698D01*
X0004100Y0136297D02*
X0012100Y0136297D01*
X0012100Y0137895D02*
X0004100Y0137895D01*
X0004100Y0139494D02*
X0012100Y0139494D01*
X0012100Y0141092D02*
X0004100Y0141092D01*
X0004100Y0142691D02*
X0012100Y0142691D01*
X0012100Y0144289D02*
X0004100Y0144289D01*
X0004100Y0145888D02*
X0012100Y0145888D01*
X0012100Y0147486D02*
X0004100Y0147486D01*
X0004100Y0149085D02*
X0010722Y0149085D01*
X0009151Y0150683D02*
X0004100Y0150683D01*
X0004100Y0152282D02*
X0008489Y0152282D01*
X0008475Y0153880D02*
X0004100Y0153880D01*
X0004100Y0155479D02*
X0008978Y0155479D01*
X0010233Y0157077D02*
X0004100Y0157077D01*
X0004100Y0158676D02*
X0145169Y0158676D01*
X0145169Y0160274D02*
X0004100Y0160274D01*
X0004100Y0161873D02*
X0062918Y0161873D01*
X0061890Y0162299D02*
X0065050Y0160990D01*
X0068471Y0160990D01*
X0071632Y0162299D01*
X0074051Y0164718D01*
X0075360Y0167878D01*
X0075360Y0171299D01*
X0074051Y0174460D01*
X0071632Y0176879D01*
X0068471Y0178188D01*
X0065050Y0178188D01*
X0061890Y0176879D01*
X0059471Y0174460D01*
X0058161Y0171299D01*
X0058161Y0167878D01*
X0059471Y0164718D01*
X0061890Y0162299D01*
X0060717Y0163472D02*
X0004100Y0163472D01*
X0004100Y0165070D02*
X0059325Y0165070D01*
X0058663Y0166669D02*
X0004100Y0166669D01*
X0004100Y0168267D02*
X0058161Y0168267D01*
X0058161Y0169866D02*
X0004100Y0169866D01*
X0004100Y0171464D02*
X0058230Y0171464D01*
X0058892Y0173063D02*
X0004100Y0173063D01*
X0004100Y0174661D02*
X0059672Y0174661D01*
X0061270Y0176260D02*
X0004100Y0176260D01*
X0004100Y0177858D02*
X0064253Y0177858D01*
X0069268Y0177858D02*
X0145169Y0177858D01*
X0145169Y0176260D02*
X0072251Y0176260D01*
X0073850Y0174661D02*
X0145169Y0174661D01*
X0145169Y0173063D02*
X0074630Y0173063D01*
X0075292Y0171464D02*
X0145169Y0171464D01*
X0145169Y0169866D02*
X0075360Y0169866D01*
X0075360Y0168267D02*
X0145169Y0168267D01*
X0145169Y0166669D02*
X0074859Y0166669D01*
X0074197Y0165070D02*
X0145169Y0165070D01*
X0145169Y0163472D02*
X0072804Y0163472D01*
X0070603Y0161873D02*
X0145169Y0161873D01*
X0145169Y0157077D02*
X0139747Y0157077D01*
X0139134Y0157690D02*
X0135489Y0157690D01*
X0132912Y0155112D01*
X0132912Y0151467D01*
X0135489Y0148890D01*
X0139134Y0148890D01*
X0141712Y0151467D01*
X0141712Y0155112D01*
X0139134Y0157690D01*
X0141345Y0155479D02*
X0145169Y0155479D01*
X0145169Y0153880D02*
X0141712Y0153880D01*
X0141712Y0152282D02*
X0145169Y0152282D01*
X0145169Y0150683D02*
X0140928Y0150683D01*
X0139329Y0149085D02*
X0145169Y0149085D01*
X0145169Y0147486D02*
X0015500Y0147486D01*
X0015500Y0145888D02*
X0145169Y0145888D01*
X0145169Y0144289D02*
X0015500Y0144289D01*
X0015500Y0142691D02*
X0052268Y0142691D01*
X0046828Y0149247D02*
X0047417Y0149837D01*
X0047908Y0150512D01*
X0048286Y0151255D01*
X0048544Y0152049D01*
X0048675Y0152873D01*
X0048675Y0153090D01*
X0043575Y0153090D01*
X0043575Y0153490D01*
X0043175Y0153490D01*
X0043175Y0158590D01*
X0042958Y0158590D01*
X0042134Y0158459D01*
X0041340Y0158201D01*
X0040597Y0157823D01*
X0039922Y0157332D01*
X0039332Y0156742D01*
X0038842Y0156068D01*
X0038463Y0155324D01*
X0038205Y0154531D01*
X0038194Y0154459D01*
X0037529Y0156065D01*
X0036150Y0157444D01*
X0034349Y0158190D01*
X0032400Y0158190D01*
X0030599Y0157444D01*
X0029221Y0156065D01*
X0028475Y0154264D01*
X0028475Y0152315D01*
X0029221Y0150514D01*
X0030599Y0149136D01*
X0032400Y0148390D01*
X0034349Y0148390D01*
X0036150Y0149136D01*
X0037529Y0150514D01*
X0038194Y0152120D01*
X0038205Y0152049D01*
X0038463Y0151255D01*
X0038842Y0150512D01*
X0039332Y0149837D01*
X0039922Y0149247D01*
X0040597Y0148757D01*
X0041340Y0148378D01*
X0042134Y0148120D01*
X0042958Y0147990D01*
X0043175Y0147990D01*
X0043175Y0153090D01*
X0043575Y0153090D01*
X0043575Y0147990D01*
X0043792Y0147990D01*
X0044616Y0148120D01*
X0045409Y0148378D01*
X0046153Y0148757D01*
X0046828Y0149247D01*
X0046604Y0149085D02*
X0085294Y0149085D01*
X0085489Y0148890D02*
X0089134Y0148890D01*
X0091712Y0151467D01*
X0091712Y0155112D01*
X0089134Y0157690D01*
X0085489Y0157690D01*
X0082912Y0155112D01*
X0082912Y0151467D01*
X0085489Y0148890D01*
X0083696Y0150683D02*
X0047995Y0150683D01*
X0048581Y0152282D02*
X0082912Y0152282D01*
X0082912Y0153880D02*
X0048647Y0153880D01*
X0048675Y0153707D02*
X0048544Y0154531D01*
X0048286Y0155324D01*
X0047908Y0156068D01*
X0047417Y0156742D01*
X0046828Y0157332D01*
X0046153Y0157823D01*
X0045409Y0158201D01*
X0044616Y0158459D01*
X0043792Y0158590D01*
X0043575Y0158590D01*
X0043575Y0153490D01*
X0048675Y0153490D01*
X0048675Y0153707D01*
X0048208Y0155479D02*
X0083278Y0155479D01*
X0084877Y0157077D02*
X0047082Y0157077D01*
X0043575Y0157077D02*
X0043175Y0157077D01*
X0043175Y0155479D02*
X0043575Y0155479D01*
X0043575Y0153880D02*
X0043175Y0153880D01*
X0043175Y0152282D02*
X0043575Y0152282D01*
X0043575Y0150683D02*
X0043175Y0150683D01*
X0043175Y0149085D02*
X0043575Y0149085D01*
X0040145Y0149085D02*
X0036028Y0149085D01*
X0037599Y0150683D02*
X0038754Y0150683D01*
X0038542Y0155479D02*
X0037772Y0155479D01*
X0036517Y0157077D02*
X0039667Y0157077D01*
X0030233Y0157077D02*
X0026517Y0157077D01*
X0026150Y0157444D02*
X0024349Y0158190D01*
X0022400Y0158190D01*
X0020599Y0157444D01*
X0019221Y0156065D01*
X0018475Y0154264D01*
X0018475Y0152315D01*
X0019221Y0150514D01*
X0020599Y0149136D01*
X0022400Y0148390D01*
X0024349Y0148390D01*
X0026150Y0149136D01*
X0027529Y0150514D01*
X0028275Y0152315D01*
X0028275Y0154264D01*
X0027529Y0156065D01*
X0026150Y0157444D01*
X0027772Y0155479D02*
X0028978Y0155479D01*
X0028475Y0153880D02*
X0028275Y0153880D01*
X0028261Y0152282D02*
X0028489Y0152282D01*
X0029151Y0150683D02*
X0027599Y0150683D01*
X0026028Y0149085D02*
X0030722Y0149085D01*
X0020722Y0149085D02*
X0016028Y0149085D01*
X0017599Y0150683D02*
X0019151Y0150683D01*
X0018489Y0152282D02*
X0018261Y0152282D01*
X0018275Y0153880D02*
X0018475Y0153880D01*
X0018978Y0155479D02*
X0017772Y0155479D01*
X0016517Y0157077D02*
X0020233Y0157077D01*
X0004100Y0179457D02*
X0145169Y0179457D01*
X0134877Y0157077D02*
X0130312Y0157077D01*
X0129300Y0158090D02*
X0132112Y0155278D01*
X0132112Y0153490D01*
X0127512Y0153490D01*
X0127112Y0153490D01*
X0127112Y0158090D01*
X0125324Y0158090D01*
X0122512Y0155278D01*
X0122512Y0153490D01*
X0127112Y0153490D01*
X0127112Y0153090D01*
X0122512Y0153090D01*
X0122512Y0151302D01*
X0125324Y0148490D01*
X0127112Y0148490D01*
X0127112Y0153090D01*
X0127512Y0153090D01*
X0127512Y0153490D01*
X0127512Y0158090D01*
X0129300Y0158090D01*
X0127512Y0157077D02*
X0127112Y0157077D01*
X0127112Y0155479D02*
X0127512Y0155479D01*
X0127512Y0153880D02*
X0127112Y0153880D01*
X0127512Y0153090D02*
X0132112Y0153090D01*
X0132112Y0151302D01*
X0129300Y0148490D01*
X0127512Y0148490D01*
X0127512Y0153090D01*
X0127512Y0152282D02*
X0127112Y0152282D01*
X0127112Y0150683D02*
X0127512Y0150683D01*
X0127512Y0149085D02*
X0127112Y0149085D01*
X0124728Y0149085D02*
X0119329Y0149085D01*
X0119134Y0148890D02*
X0121712Y0151467D01*
X0121712Y0155112D01*
X0119134Y0157690D01*
X0115489Y0157690D01*
X0112912Y0155112D01*
X0112912Y0151467D01*
X0115489Y0148890D01*
X0119134Y0148890D01*
X0120928Y0150683D02*
X0123130Y0150683D01*
X0122512Y0152282D02*
X0121712Y0152282D01*
X0121712Y0153880D02*
X0122512Y0153880D01*
X0122713Y0155479D02*
X0121345Y0155479D01*
X0119747Y0157077D02*
X0124311Y0157077D01*
X0131911Y0155479D02*
X0133278Y0155479D01*
X0132912Y0153880D02*
X0132112Y0153880D01*
X0132112Y0152282D02*
X0132912Y0152282D01*
X0133696Y0150683D02*
X0131494Y0150683D01*
X0129895Y0149085D02*
X0135294Y0149085D01*
X0145169Y0142691D02*
X0102532Y0142691D01*
X0104131Y0141092D02*
X0145169Y0141092D01*
X0145169Y0139494D02*
X0105729Y0139494D01*
X0107328Y0137895D02*
X0145169Y0137895D01*
X0145169Y0136297D02*
X0117220Y0136297D01*
X0118819Y0134698D02*
X0145169Y0134698D01*
X0145169Y0133100D02*
X0119665Y0133100D01*
X0119665Y0131501D02*
X0145169Y0131501D01*
X0145169Y0129903D02*
X0119360Y0129903D01*
X0117761Y0128304D02*
X0145169Y0128304D01*
X0145169Y0126706D02*
X0117377Y0126706D01*
X0115465Y0126706D02*
X0115065Y0126706D01*
X0115065Y0125107D02*
X0115465Y0125107D01*
X0115465Y0123509D02*
X0115065Y0123509D01*
X0115465Y0121910D02*
X0145169Y0121910D01*
X0145169Y0120312D02*
X0120065Y0120312D01*
X0120065Y0120042D02*
X0120065Y0121830D01*
X0115465Y0121830D01*
X0115465Y0117230D01*
X0117253Y0117230D01*
X0120065Y0120042D01*
X0118736Y0118713D02*
X0145169Y0118713D01*
X0145169Y0117115D02*
X0112700Y0117115D01*
X0115065Y0118713D02*
X0115465Y0118713D01*
X0115465Y0120312D02*
X0115065Y0120312D01*
X0118975Y0125107D02*
X0145169Y0125107D01*
X0145169Y0123509D02*
X0120065Y0123509D01*
X0113152Y0126706D02*
X0112700Y0126706D01*
X0111710Y0134698D02*
X0110525Y0134698D01*
X0108926Y0136297D02*
X0113309Y0136297D01*
X0115294Y0149085D02*
X0109329Y0149085D01*
X0109134Y0148890D02*
X0111712Y0151467D01*
X0111712Y0155112D01*
X0109134Y0157690D01*
X0105489Y0157690D01*
X0102912Y0155112D01*
X0102912Y0151467D01*
X0105489Y0148890D01*
X0109134Y0148890D01*
X0110928Y0150683D02*
X0113696Y0150683D01*
X0112912Y0152282D02*
X0111712Y0152282D01*
X0111712Y0153880D02*
X0112912Y0153880D01*
X0113278Y0155479D02*
X0111345Y0155479D01*
X0109747Y0157077D02*
X0114877Y0157077D01*
X0104877Y0157077D02*
X0099747Y0157077D01*
X0099134Y0157690D02*
X0095489Y0157690D01*
X0092912Y0155112D01*
X0092912Y0151467D01*
X0095489Y0148890D01*
X0099134Y0148890D01*
X0101712Y0151467D01*
X0101712Y0155112D01*
X0099134Y0157690D01*
X0101345Y0155479D02*
X0103278Y0155479D01*
X0102912Y0153880D02*
X0101712Y0153880D01*
X0101712Y0152282D02*
X0102912Y0152282D01*
X0103696Y0150683D02*
X0100928Y0150683D01*
X0099329Y0149085D02*
X0105294Y0149085D01*
X0095294Y0149085D02*
X0089329Y0149085D01*
X0090928Y0150683D02*
X0093696Y0150683D01*
X0092912Y0152282D02*
X0091712Y0152282D01*
X0091712Y0153880D02*
X0092912Y0153880D01*
X0093278Y0155479D02*
X0091345Y0155479D01*
X0089747Y0157077D02*
X0094877Y0157077D01*
X0088491Y0118119D02*
X0085096Y0118119D01*
X0084350Y0118865D01*
X0084350Y0118072D01*
X0083931Y0117061D01*
X0083158Y0116288D01*
X0082147Y0115869D01*
X0081053Y0115869D01*
X0080042Y0116288D01*
X0079269Y0117061D01*
X0078850Y0118072D01*
X0078850Y0118965D01*
X0078700Y0119115D01*
X0078700Y0119548D01*
X0077592Y0119548D01*
X0077750Y0119166D01*
X0077750Y0118072D01*
X0077331Y0117061D01*
X0076558Y0116288D01*
X0075547Y0115869D01*
X0074453Y0115869D01*
X0073442Y0116288D01*
X0072669Y0117061D01*
X0072250Y0118072D01*
X0072250Y0118965D01*
X0072100Y0119115D01*
X0072100Y0119548D01*
X0069811Y0119548D01*
X0069791Y0119568D01*
X0069771Y0119548D01*
X0063691Y0119548D01*
X0063691Y0113468D01*
X0063671Y0113448D01*
X0063691Y0113428D01*
X0063691Y0110894D01*
X0063732Y0110853D01*
X0063969Y0110443D01*
X0064091Y0109985D01*
X0064091Y0108748D01*
X0059391Y0108748D01*
X0059391Y0108748D01*
X0064091Y0108748D01*
X0064091Y0107511D01*
X0063969Y0107053D01*
X0063732Y0106643D01*
X0063691Y0106602D01*
X0063691Y0104594D01*
X0063732Y0104553D01*
X0063969Y0104143D01*
X0064091Y0103685D01*
X0064091Y0102448D01*
X0059391Y0102448D01*
X0059391Y0102448D01*
X0064091Y0102448D01*
X0064091Y0101211D01*
X0063969Y0100753D01*
X0063732Y0100343D01*
X0063691Y0100302D01*
X0063691Y0094748D01*
X0069771Y0094748D01*
X0069791Y0094728D01*
X0069811Y0094748D01*
X0070900Y0094748D01*
X0070900Y0095452D01*
X0071896Y0096448D01*
X0073304Y0096448D01*
X0074300Y0095452D01*
X0074300Y0094748D01*
X0076071Y0094748D01*
X0076091Y0094728D01*
X0076111Y0094748D01*
X0082371Y0094748D01*
X0082391Y0094728D01*
X0082411Y0094748D01*
X0088491Y0094748D01*
X0088491Y0097102D01*
X0088451Y0097143D01*
X0088214Y0097553D01*
X0088091Y0098011D01*
X0088091Y0099248D01*
X0092791Y0099248D01*
X0092791Y0099248D01*
X0088091Y0099248D01*
X0088091Y0100485D01*
X0088214Y0100943D01*
X0088451Y0101353D01*
X0088491Y0101394D01*
X0088491Y0107128D01*
X0088511Y0107148D01*
X0088491Y0107168D01*
X0088491Y0113428D01*
X0088511Y0113448D01*
X0088491Y0113468D01*
X0088491Y0118119D01*
X0088491Y0117115D02*
X0083953Y0117115D01*
X0084350Y0118713D02*
X0084502Y0118713D01*
X0088491Y0115516D02*
X0063691Y0115516D01*
X0063691Y0113918D02*
X0088491Y0113918D01*
X0088491Y0112319D02*
X0063691Y0112319D01*
X0063808Y0110721D02*
X0088491Y0110721D01*
X0088491Y0109122D02*
X0064091Y0109122D01*
X0064091Y0107524D02*
X0088491Y0107524D01*
X0088491Y0105925D02*
X0063691Y0105925D01*
X0063863Y0104327D02*
X0088491Y0104327D01*
X0088491Y0102728D02*
X0064091Y0102728D01*
X0064069Y0101130D02*
X0088322Y0101130D01*
X0088091Y0099531D02*
X0063691Y0099531D01*
X0063691Y0097933D02*
X0088112Y0097933D01*
X0088491Y0096334D02*
X0073418Y0096334D01*
X0071782Y0096334D02*
X0063691Y0096334D01*
X0069784Y0094736D02*
X0069799Y0094736D01*
X0076084Y0094736D02*
X0076099Y0094736D01*
X0082384Y0094736D02*
X0082399Y0094736D01*
X0092791Y0099248D02*
X0092791Y0099248D01*
X0097491Y0099248D01*
X0092791Y0099248D01*
X0097491Y0099531D02*
X0145169Y0099531D01*
X0145169Y0097933D02*
X0097470Y0097933D01*
X0097261Y0101130D02*
X0145169Y0101130D01*
X0145169Y0102728D02*
X0097091Y0102728D01*
X0097091Y0104327D02*
X0145169Y0104327D01*
X0145169Y0105925D02*
X0097091Y0105925D01*
X0108909Y0107524D02*
X0112983Y0107524D01*
X0111384Y0109122D02*
X0110507Y0109122D01*
X0115065Y0109122D02*
X0115465Y0109122D01*
X0115465Y0107524D02*
X0115065Y0107524D01*
X0115465Y0107230D02*
X0117253Y0107230D01*
X0120065Y0110042D01*
X0120065Y0111830D01*
X0115465Y0111830D01*
X0115465Y0107230D01*
X0117546Y0107524D02*
X0145169Y0107524D01*
X0145169Y0109122D02*
X0119145Y0109122D01*
X0120065Y0110721D02*
X0145169Y0110721D01*
X0145169Y0112319D02*
X0120065Y0112319D01*
X0120065Y0113918D02*
X0145169Y0113918D01*
X0145169Y0115516D02*
X0118567Y0115516D01*
X0115465Y0115516D02*
X0115065Y0115516D01*
X0115065Y0113918D02*
X0115465Y0113918D01*
X0115465Y0112319D02*
X0115065Y0112319D01*
X0115065Y0110721D02*
X0115465Y0110721D01*
X0108089Y0096334D02*
X0145169Y0096334D01*
X0145169Y0094736D02*
X0109688Y0094736D01*
X0111286Y0093137D02*
X0145169Y0093137D01*
X0145169Y0091539D02*
X0112885Y0091539D01*
X0114483Y0089940D02*
X0145169Y0089940D01*
X0145169Y0088341D02*
X0116082Y0088341D01*
X0117680Y0086743D02*
X0145169Y0086743D01*
X0145169Y0085144D02*
X0134613Y0085144D01*
X0136212Y0083546D02*
X0145169Y0083546D01*
X0145169Y0081947D02*
X0136316Y0081947D01*
X0136316Y0080349D02*
X0145169Y0080349D01*
X0145169Y0078750D02*
X0136181Y0078750D01*
X0134582Y0077152D02*
X0145169Y0077152D01*
X0145169Y0075553D02*
X0133639Y0075553D01*
X0135237Y0073955D02*
X0145169Y0073955D01*
X0145169Y0072356D02*
X0135916Y0072356D01*
X0135916Y0070758D02*
X0145169Y0070758D01*
X0145169Y0069159D02*
X0135916Y0069159D01*
X0134425Y0067561D02*
X0145169Y0067561D01*
X0145169Y0065962D02*
X0135461Y0065962D01*
X0137059Y0064364D02*
X0145169Y0064364D01*
X0145169Y0062765D02*
X0137300Y0062765D01*
X0137300Y0061167D02*
X0145169Y0061167D01*
X0145169Y0059568D02*
X0137300Y0059568D01*
X0136755Y0057970D02*
X0145169Y0057970D01*
X0145169Y0056371D02*
X0135157Y0056371D01*
X0133558Y0054773D02*
X0145169Y0054773D01*
X0145169Y0053174D02*
X0131959Y0053174D01*
X0130361Y0051576D02*
X0145169Y0051576D01*
X0145169Y0049977D02*
X0128762Y0049977D01*
X0127164Y0048379D02*
X0145169Y0048379D01*
X0145169Y0046780D02*
X0125565Y0046780D01*
X0123967Y0045182D02*
X0145169Y0045182D01*
X0145169Y0043583D02*
X0122368Y0043583D01*
X0120770Y0041985D02*
X0145169Y0041985D01*
X0145169Y0040386D02*
X0119171Y0040386D01*
X0117573Y0038788D02*
X0145169Y0038788D01*
X0145169Y0037189D02*
X0115974Y0037189D01*
X0114376Y0035591D02*
X0145169Y0035591D01*
X0145169Y0033992D02*
X0112777Y0033992D01*
X0111179Y0032394D02*
X0145169Y0032394D01*
X0145169Y0030795D02*
X0109580Y0030795D01*
X0107982Y0029197D02*
X0145169Y0029197D01*
X0145169Y0027598D02*
X0106383Y0027598D01*
X0104785Y0026000D02*
X0145169Y0026000D01*
X0145169Y0024401D02*
X0140334Y0024401D01*
X0140529Y0024320D02*
X0137369Y0025629D01*
X0133948Y0025629D01*
X0130787Y0024320D01*
X0128368Y0021901D01*
X0127059Y0018740D01*
X0127059Y0015319D01*
X0128368Y0012159D01*
X0130787Y0009740D01*
X0133948Y0008431D01*
X0137369Y0008431D01*
X0140529Y0009740D01*
X0142948Y0012159D01*
X0144257Y0015319D01*
X0144257Y0018740D01*
X0142948Y0021901D01*
X0140529Y0024320D01*
X0142047Y0022803D02*
X0145169Y0022803D01*
X0145169Y0021204D02*
X0143237Y0021204D01*
X0143899Y0019605D02*
X0145169Y0019605D01*
X0145169Y0018007D02*
X0144257Y0018007D01*
X0144257Y0016408D02*
X0145169Y0016408D01*
X0145169Y0014810D02*
X0144046Y0014810D01*
X0143384Y0013211D02*
X0145169Y0013211D01*
X0145169Y0011613D02*
X0142402Y0011613D01*
X0140804Y0010014D02*
X0145169Y0010014D01*
X0145169Y0008416D02*
X0099145Y0008416D01*
X0099145Y0010014D02*
X0130513Y0010014D01*
X0128914Y0011613D02*
X0099145Y0011613D01*
X0099145Y0013211D02*
X0127932Y0013211D01*
X0127270Y0014810D02*
X0099145Y0014810D01*
X0099145Y0016408D02*
X0127059Y0016408D01*
X0127059Y0018007D02*
X0099145Y0018007D01*
X0098391Y0019605D02*
X0127417Y0019605D01*
X0128080Y0021204D02*
X0099989Y0021204D01*
X0101588Y0022803D02*
X0129270Y0022803D01*
X0130983Y0024401D02*
X0103186Y0024401D01*
X0089360Y0043583D02*
X0063040Y0043583D01*
X0064638Y0041985D02*
X0087762Y0041985D01*
X0086163Y0040386D02*
X0084361Y0040386D01*
X0067822Y0040386D02*
X0066237Y0040386D01*
X0067191Y0045182D02*
X0061441Y0045182D01*
X0059843Y0046780D02*
X0067191Y0046780D01*
X0037300Y0027598D02*
X0004100Y0027598D01*
X0004100Y0026000D02*
X0035776Y0026000D01*
X0034178Y0024401D02*
X0018286Y0024401D01*
X0018482Y0024320D02*
X0015322Y0025629D01*
X0011901Y0025629D01*
X0008740Y0024320D01*
X0006321Y0021901D01*
X0005012Y0018740D01*
X0005012Y0015319D01*
X0006321Y0012159D01*
X0008740Y0009740D01*
X0011901Y0008431D01*
X0015322Y0008431D01*
X0018482Y0009740D01*
X0020901Y0012159D01*
X0022210Y0015319D01*
X0022210Y0018740D01*
X0020901Y0021901D01*
X0018482Y0024320D01*
X0020000Y0022803D02*
X0033100Y0022803D01*
X0033100Y0021204D02*
X0021190Y0021204D01*
X0021852Y0019605D02*
X0033100Y0019605D01*
X0033100Y0018007D02*
X0022210Y0018007D01*
X0022210Y0016408D02*
X0033100Y0016408D01*
X0033100Y0014810D02*
X0021999Y0014810D01*
X0021337Y0013211D02*
X0033100Y0013211D01*
X0033100Y0011613D02*
X0020355Y0011613D01*
X0018757Y0010014D02*
X0033100Y0010014D01*
X0033100Y0008416D02*
X0004100Y0008416D01*
X0004100Y0010014D02*
X0008465Y0010014D01*
X0006867Y0011613D02*
X0004100Y0011613D01*
X0004100Y0013211D02*
X0005885Y0013211D01*
X0005223Y0014810D02*
X0004100Y0014810D01*
X0004100Y0016408D02*
X0005012Y0016408D01*
X0005012Y0018007D02*
X0004100Y0018007D01*
X0004100Y0019605D02*
X0005370Y0019605D01*
X0006032Y0021204D02*
X0004100Y0021204D01*
X0004100Y0022803D02*
X0007223Y0022803D01*
X0008936Y0024401D02*
X0004100Y0024401D01*
X0028175Y0102728D02*
X0028575Y0102728D01*
X0028575Y0104327D02*
X0028175Y0104327D01*
X0028175Y0105925D02*
X0028575Y0105925D01*
X0028575Y0107524D02*
X0028175Y0107524D01*
X0028175Y0109122D02*
X0028575Y0109122D01*
X0031997Y0113918D02*
X0052847Y0113918D01*
X0063691Y0117115D02*
X0072646Y0117115D01*
X0072250Y0118713D02*
X0063691Y0118713D01*
X0077353Y0117115D02*
X0079246Y0117115D01*
X0078850Y0118713D02*
X0077750Y0118713D01*
X0124048Y0085144D02*
X0127018Y0085144D01*
X0130616Y0085144D02*
X0131016Y0085144D01*
X0131016Y0083546D02*
X0130616Y0083546D01*
X0130616Y0081947D02*
X0131016Y0081947D01*
M02*
