%
M48
M72
T01C0.01300
T02C0.03543
T03C0.04000
T04C0.12598
%
T01
X54000Y111419
X51000Y124019
X51000Y135419
X66600Y131219
X75000Y118619
X81600Y118619
X81600Y137819
X94800Y88019
T02
X84753Y24628
X67430Y24628
T03
X28375Y86518
X28375Y96518
X28375Y106518
X28375Y116518
X28375Y126518
X28375Y136518
X33375Y153290
X43375Y153290
X23375Y153290
X13375Y153290
X87312Y153290
X97312Y153290
X107312Y153290
X117312Y153290
X127312Y153290
X137312Y153290
X115265Y132030
X115265Y122030
X115265Y112030
X105265Y112030
X105265Y122030
X105265Y132030
X120816Y81164
X120816Y71164
X120816Y61164
X130816Y61164
X130816Y71164
X130816Y81164
T04
X13611Y17030
X135658Y17030
X66761Y169589
M30
